%TF.GenerationSoftware,KiCad,Pcbnew,(6.0.8)*%
%TF.CreationDate,2023-05-09T15:30:51+03:00*%
%TF.ProjectId,uyarma devresi,75796172-6d61-4206-9465-76726573692e,33*%
%TF.SameCoordinates,Original*%
%TF.FileFunction,Other,Comment*%
%FSLAX46Y46*%
G04 Gerber Fmt 4.6, Leading zero omitted, Abs format (unit mm)*
G04 Created by KiCad (PCBNEW (6.0.8)) date 2023-05-09 15:30:51*
%MOMM*%
%LPD*%
G01*
G04 APERTURE LIST*
%ADD10C,0.150000*%
G04 APERTURE END LIST*
D10*
%TO.C,U5*%
X90259999Y-41937142D02*
X90212380Y-41984761D01*
X90069523Y-42032380D01*
X89974285Y-42032380D01*
X89831428Y-41984761D01*
X89736190Y-41889523D01*
X89688571Y-41794285D01*
X89640952Y-41603809D01*
X89640952Y-41460952D01*
X89688571Y-41270476D01*
X89736190Y-41175238D01*
X89831428Y-41080000D01*
X89974285Y-41032380D01*
X90069523Y-41032380D01*
X90212380Y-41080000D01*
X90259999Y-41127619D01*
X90831428Y-42032380D02*
X90736190Y-41984761D01*
X90688571Y-41937142D01*
X90640952Y-41841904D01*
X90640952Y-41556190D01*
X90688571Y-41460952D01*
X90736190Y-41413333D01*
X90831428Y-41365714D01*
X90974285Y-41365714D01*
X91069523Y-41413333D01*
X91117142Y-41460952D01*
X91164761Y-41556190D01*
X91164761Y-41841904D01*
X91117142Y-41937142D01*
X91069523Y-41984761D01*
X90974285Y-42032380D01*
X90831428Y-42032380D01*
X91593333Y-41365714D02*
X91593333Y-42365714D01*
X91593333Y-41413333D02*
X91688571Y-41365714D01*
X91879047Y-41365714D01*
X91974285Y-41413333D01*
X92021904Y-41460952D01*
X92069523Y-41556190D01*
X92069523Y-41841904D01*
X92021904Y-41937142D01*
X91974285Y-41984761D01*
X91879047Y-42032380D01*
X91688571Y-42032380D01*
X91593333Y-41984761D01*
X92498095Y-41365714D02*
X92498095Y-42365714D01*
X92498095Y-41413333D02*
X92593333Y-41365714D01*
X92783809Y-41365714D01*
X92879047Y-41413333D01*
X92926666Y-41460952D01*
X92974285Y-41556190D01*
X92974285Y-41841904D01*
X92926666Y-41937142D01*
X92879047Y-41984761D01*
X92783809Y-42032380D01*
X92593333Y-42032380D01*
X92498095Y-41984761D01*
X93783809Y-41984761D02*
X93688571Y-42032380D01*
X93498095Y-42032380D01*
X93402857Y-41984761D01*
X93355238Y-41889523D01*
X93355238Y-41508571D01*
X93402857Y-41413333D01*
X93498095Y-41365714D01*
X93688571Y-41365714D01*
X93783809Y-41413333D01*
X93831428Y-41508571D01*
X93831428Y-41603809D01*
X93355238Y-41699047D01*
X94259999Y-42032380D02*
X94259999Y-41365714D01*
X94259999Y-41556190D02*
X94307619Y-41460952D01*
X94355238Y-41413333D01*
X94450476Y-41365714D01*
X94545714Y-41365714D01*
X95640952Y-42032380D02*
X95640952Y-41032380D01*
X96212380Y-42032380D02*
X95783809Y-41460952D01*
X96212380Y-41032380D02*
X95640952Y-41603809D01*
X97021904Y-41984761D02*
X96926666Y-42032380D01*
X96736190Y-42032380D01*
X96640952Y-41984761D01*
X96593333Y-41889523D01*
X96593333Y-41508571D01*
X96640952Y-41413333D01*
X96736190Y-41365714D01*
X96926666Y-41365714D01*
X97021904Y-41413333D01*
X97069523Y-41508571D01*
X97069523Y-41603809D01*
X96593333Y-41699047D01*
X97879047Y-41984761D02*
X97783809Y-42032380D01*
X97593333Y-42032380D01*
X97498095Y-41984761D01*
X97450476Y-41889523D01*
X97450476Y-41508571D01*
X97498095Y-41413333D01*
X97593333Y-41365714D01*
X97783809Y-41365714D01*
X97879047Y-41413333D01*
X97926666Y-41508571D01*
X97926666Y-41603809D01*
X97450476Y-41699047D01*
X98355238Y-41365714D02*
X98355238Y-42365714D01*
X98355238Y-41413333D02*
X98450476Y-41365714D01*
X98640952Y-41365714D01*
X98736190Y-41413333D01*
X98783809Y-41460952D01*
X98831428Y-41556190D01*
X98831428Y-41841904D01*
X98783809Y-41937142D01*
X98736190Y-41984761D01*
X98640952Y-42032380D01*
X98450476Y-42032380D01*
X98355238Y-41984761D01*
X99402857Y-42032380D02*
X99307619Y-41984761D01*
X99259999Y-41937142D01*
X99212380Y-41841904D01*
X99212380Y-41556190D01*
X99259999Y-41460952D01*
X99307619Y-41413333D01*
X99402857Y-41365714D01*
X99545714Y-41365714D01*
X99640952Y-41413333D01*
X99688571Y-41460952D01*
X99736190Y-41556190D01*
X99736190Y-41841904D01*
X99688571Y-41937142D01*
X99640952Y-41984761D01*
X99545714Y-42032380D01*
X99402857Y-42032380D01*
X100593333Y-41365714D02*
X100593333Y-42032380D01*
X100164761Y-41365714D02*
X100164761Y-41889523D01*
X100212380Y-41984761D01*
X100307619Y-42032380D01*
X100450476Y-42032380D01*
X100545714Y-41984761D01*
X100593333Y-41937142D01*
X100926666Y-41365714D02*
X101307619Y-41365714D01*
X101069523Y-41032380D02*
X101069523Y-41889523D01*
X101117142Y-41984761D01*
X101212380Y-42032380D01*
X101307619Y-42032380D01*
X101593333Y-41984761D02*
X101688571Y-42032380D01*
X101879047Y-42032380D01*
X101974285Y-41984761D01*
X102021904Y-41889523D01*
X102021904Y-41841904D01*
X101974285Y-41746666D01*
X101879047Y-41699047D01*
X101736190Y-41699047D01*
X101640952Y-41651428D01*
X101593333Y-41556190D01*
X101593333Y-41508571D01*
X101640952Y-41413333D01*
X101736190Y-41365714D01*
X101879047Y-41365714D01*
X101974285Y-41413333D01*
X103164761Y-41984761D02*
X103259999Y-42032380D01*
X103450476Y-42032380D01*
X103545714Y-41984761D01*
X103593333Y-41889523D01*
X103593333Y-41841904D01*
X103545714Y-41746666D01*
X103450476Y-41699047D01*
X103307619Y-41699047D01*
X103212380Y-41651428D01*
X103164761Y-41556190D01*
X103164761Y-41508571D01*
X103212380Y-41413333D01*
X103307619Y-41365714D01*
X103450476Y-41365714D01*
X103545714Y-41413333D01*
X104021904Y-42032380D02*
X104021904Y-41032380D01*
X104450476Y-42032380D02*
X104450476Y-41508571D01*
X104402857Y-41413333D01*
X104307619Y-41365714D01*
X104164761Y-41365714D01*
X104069523Y-41413333D01*
X104021904Y-41460952D01*
X105069523Y-42032380D02*
X104974285Y-41984761D01*
X104926666Y-41937142D01*
X104879047Y-41841904D01*
X104879047Y-41556190D01*
X104926666Y-41460952D01*
X104974285Y-41413333D01*
X105069523Y-41365714D01*
X105212380Y-41365714D01*
X105307619Y-41413333D01*
X105355238Y-41460952D01*
X105402857Y-41556190D01*
X105402857Y-41841904D01*
X105355238Y-41937142D01*
X105307619Y-41984761D01*
X105212380Y-42032380D01*
X105069523Y-42032380D01*
X105736190Y-41365714D02*
X105926666Y-42032380D01*
X106117142Y-41556190D01*
X106307619Y-42032380D01*
X106498095Y-41365714D01*
X106879047Y-41365714D02*
X106879047Y-42032380D01*
X106879047Y-41460952D02*
X106926666Y-41413333D01*
X107021904Y-41365714D01*
X107164761Y-41365714D01*
X107259999Y-41413333D01*
X107307619Y-41508571D01*
X107307619Y-42032380D01*
X108688571Y-42032380D02*
X108593333Y-41984761D01*
X108545714Y-41937142D01*
X108498095Y-41841904D01*
X108498095Y-41556190D01*
X108545714Y-41460952D01*
X108593333Y-41413333D01*
X108688571Y-41365714D01*
X108831428Y-41365714D01*
X108926666Y-41413333D01*
X108974285Y-41460952D01*
X109021904Y-41556190D01*
X109021904Y-41841904D01*
X108974285Y-41937142D01*
X108926666Y-41984761D01*
X108831428Y-42032380D01*
X108688571Y-42032380D01*
X109450476Y-41365714D02*
X109450476Y-42032380D01*
X109450476Y-41460952D02*
X109498095Y-41413333D01*
X109593333Y-41365714D01*
X109736190Y-41365714D01*
X109831428Y-41413333D01*
X109879047Y-41508571D01*
X109879047Y-42032380D01*
X111117142Y-42032380D02*
X111117142Y-41032380D01*
X111355238Y-41032380D01*
X111498095Y-41080000D01*
X111593333Y-41175238D01*
X111640952Y-41270476D01*
X111688571Y-41460952D01*
X111688571Y-41603809D01*
X111640952Y-41794285D01*
X111593333Y-41889523D01*
X111498095Y-41984761D01*
X111355238Y-42032380D01*
X111117142Y-42032380D01*
X112021904Y-41365714D02*
X112212380Y-42032380D01*
X112402857Y-41556190D01*
X112593333Y-42032380D01*
X112783809Y-41365714D01*
X113593333Y-41365714D02*
X113593333Y-42175238D01*
X113545714Y-42270476D01*
X113498095Y-42318095D01*
X113402857Y-42365714D01*
X113259999Y-42365714D01*
X113164761Y-42318095D01*
X113593333Y-41984761D02*
X113498095Y-42032380D01*
X113307619Y-42032380D01*
X113212380Y-41984761D01*
X113164761Y-41937142D01*
X113117142Y-41841904D01*
X113117142Y-41556190D01*
X113164761Y-41460952D01*
X113212380Y-41413333D01*
X113307619Y-41365714D01*
X113498095Y-41365714D01*
X113593333Y-41413333D01*
X114021904Y-41984761D02*
X114117142Y-42032380D01*
X114307619Y-42032380D01*
X114402857Y-41984761D01*
X114450476Y-41889523D01*
X114450476Y-41841904D01*
X114402857Y-41746666D01*
X114307619Y-41699047D01*
X114164761Y-41699047D01*
X114069523Y-41651428D01*
X114021904Y-41556190D01*
X114021904Y-41508571D01*
X114069523Y-41413333D01*
X114164761Y-41365714D01*
X114307619Y-41365714D01*
X114402857Y-41413333D01*
X115783809Y-42032380D02*
X115688571Y-41984761D01*
X115640952Y-41889523D01*
X115640952Y-41032380D01*
X116593333Y-42032380D02*
X116593333Y-41508571D01*
X116545714Y-41413333D01*
X116450476Y-41365714D01*
X116259999Y-41365714D01*
X116164761Y-41413333D01*
X116593333Y-41984761D02*
X116498095Y-42032380D01*
X116259999Y-42032380D01*
X116164761Y-41984761D01*
X116117142Y-41889523D01*
X116117142Y-41794285D01*
X116164761Y-41699047D01*
X116259999Y-41651428D01*
X116498095Y-41651428D01*
X116593333Y-41603809D01*
X116974285Y-41365714D02*
X117212380Y-42032380D01*
X117450476Y-41365714D02*
X117212380Y-42032380D01*
X117117142Y-42270476D01*
X117069523Y-42318095D01*
X116974285Y-42365714D01*
X118212380Y-41984761D02*
X118117142Y-42032380D01*
X117926666Y-42032380D01*
X117831428Y-41984761D01*
X117783809Y-41889523D01*
X117783809Y-41508571D01*
X117831428Y-41413333D01*
X117926666Y-41365714D01*
X118117142Y-41365714D01*
X118212380Y-41413333D01*
X118259999Y-41508571D01*
X118259999Y-41603809D01*
X117783809Y-41699047D01*
X118688571Y-42032380D02*
X118688571Y-41365714D01*
X118688571Y-41556190D02*
X118736190Y-41460952D01*
X118783809Y-41413333D01*
X118879047Y-41365714D01*
X118974285Y-41365714D01*
%TD*%
M02*
