M48
; DRILL file {KiCad (6.0.8)} date Tue May  9 15:30:52 2023
; FORMAT={-:-/ absolute / inch / decimal}
; #@! TF.CreationDate,2023-05-09T15:30:52+03:00
; #@! TF.GenerationSoftware,Kicad,Pcbnew,(6.0.8)
; #@! TF.FileFunction,Plated,1,2,PTH
FMAT,2
INCH
; #@! TA.AperFunction,Plated,PTH,ViaDrill
T1C0.0118
; #@! TA.AperFunction,Plated,PTH,ComponentDrill
T2C0.0236
; #@! TA.AperFunction,Plated,PTH,ComponentDrill
T3C0.0315
; #@! TA.AperFunction,Plated,PTH,ComponentDrill
T4C0.0335
; #@! TA.AperFunction,Plated,PTH,ComponentDrill
T5C0.0394
; #@! TA.AperFunction,Plated,PTH,ComponentDrill
T6C0.0402
%
G90
G05
T1
X3.6417Y-4.3307
X3.7106Y-4.3307
X3.7894Y-4.3307
X3.8583Y-2.2047
X3.8583Y-2.3622
X3.8583Y-2.4803
X3.8583Y-2.5984
X3.8583Y-3.5433
X3.8583Y-3.5827
X3.8583Y-3.622
X3.8583Y-3.6614
X3.8583Y-3.7008
X3.8583Y-3.7402
X3.8681Y-4.3307
X3.8976Y-3.1102
X3.8976Y-3.2283
X3.8976Y-3.2677
X3.8976Y-3.3071
X3.9764Y-4.3307
X3.9961Y-2.5197
X4.0551Y-2.6772
X4.0551Y-2.8346
X4.0681Y-3.3598
X4.0697Y-3.5776
X4.0748Y-2.5197
X4.0945Y-4.3307
X4.1142Y-3.0906
X4.1339Y-5.0394
X4.1339Y-5.0787
X4.1339Y-5.1181
X4.1339Y-5.1575
X4.1339Y-5.1969
X4.1339Y-5.2362
X4.1339Y-5.2756
X4.1339Y-5.315
X4.1339Y-5.3543
X4.1339Y-5.5118
X4.1339Y-5.5512
X4.1339Y-5.5906
X4.1339Y-5.6299
X4.1535Y-2.5197
X4.1732Y-5.0394
X4.1732Y-5.6299
X4.1929Y-4.3307
X4.2126Y-5.0394
X4.2126Y-5.6299
X4.2197Y-2.8244
X4.252Y-5.6299
X4.2894Y-2.9819
X4.3425Y-2.7327
X4.4094Y-4.3307
X4.4488Y-5.0394
X4.4587Y-4.7441
X4.4882Y-4.3307
X4.4882Y-5.0394
X4.5079Y-4.7441
X4.5256Y-5.6004
X4.5276Y-5.0394
X4.5669Y-5.0394
X4.5669Y-5.6004
X4.5768Y-4.7441
X4.6024Y-5.6004
X4.6063Y-5.0394
X4.6358Y-5.6004
X4.6457Y-5.0394
X4.6669Y-5.6004
X4.6752Y-4.7441
X4.685Y-5.0394
X4.7Y-5.6004
X4.7244Y-5.0394
X4.7343Y-5.6004
X4.7638Y-5.0394
X4.7917Y-5.5906
X4.8031Y-5.0394
X4.9606Y-2.4803
X4.9606Y-4.3307
X4.9803Y-2.3465
X4.9803Y-2.3858
X4.9803Y-2.4213
X4.9803Y-2.4528
X5.0787Y-4.3307
X5.1969Y-4.3307
X5.1969Y-4.9213
X5.2362Y-3.0315
X5.2362Y-3.1102
X5.2362Y-3.189
X5.2362Y-3.2677
X5.2362Y-3.3465
X5.2362Y-4.9213
X5.2756Y-4.9213
X5.2756Y-5.3937
X5.2929Y-3.6622
X5.2937Y-3.5854
X5.2953Y-3.4902
X5.315Y-4.3307
X5.315Y-4.9213
X5.315Y-5.3937
X5.3543Y-4.9213
X5.3543Y-5.0787
X5.3543Y-5.3937
X5.3937Y-4.9213
X5.3937Y-5.0787
X5.3937Y-5.1181
X5.3937Y-5.1575
X5.3937Y-5.1969
X5.3937Y-5.2362
X5.3937Y-5.2756
X5.3937Y-5.315
X5.3937Y-5.3543
X5.4331Y-4.9213
X5.4331Y-5.5906
X5.4724Y-3.189
X5.4724Y-5.5906
X5.5118Y-5.5906
X5.5512Y-5.0787
X5.5512Y-5.1181
X5.5512Y-5.1575
X5.5512Y-5.1969
X5.5512Y-5.2362
X5.5512Y-5.2756
X5.5512Y-5.315
X5.5512Y-5.3543
X5.5512Y-5.5906
X5.5906Y-4.3307
X5.5906Y-5.0787
X5.5906Y-5.5906
X5.5909Y-2.8433
X5.5909Y-2.902
X5.5988Y-3.9874
X5.6299Y-3.189
X5.6299Y-5.0787
X5.6693Y-5.0787
X5.7087Y-4.3307
X5.7087Y-5.0787
X5.7215Y-5.3232
X5.748Y-5.0787
X5.8071Y-4.676
X5.8254Y-5.3236
X5.8268Y-4.3307
X5.8661Y-3.189
X5.8876Y-5.1402
X5.9449Y-4.3307
X5.9843Y-3.6614
X6.0039Y-4.6768
X6.047Y-5.0634
X6.063Y-3.189
X6.063Y-3.7795
X6.0663Y-5.5972
X6.0778Y-5.4602
X6.1024Y-4.3307
X6.1026Y-5.063
X6.1148Y-5.5965
X6.1236Y-2.3736
X6.124Y-2.3335
X6.1248Y-2.415
X6.1553Y-5.0622
X6.164Y-5.2587
X6.173Y-5.5957
X6.2008Y-4.676
X6.2073Y-5.461
X6.2205Y-3.8583
X6.2205Y-4.3307
X6.2506Y-5.5949
X6.2598Y-3.189
X6.2992Y-4.3307
X6.3114Y-2.8024
X6.3169Y-2.9531
X6.3874Y-3.9906
X6.3874Y-4.0409
X6.3874Y-4.0965
X6.3874Y-4.1575
X6.4242Y-5.0799
X6.425Y-5.3819
X6.4636Y-5.0799
X6.4961Y-3.189
X6.4961Y-4.1732
X6.4972Y-2.3059
X6.503Y-5.0799
X6.5258Y-5.2059
X6.5354Y-4.3307
X6.5748Y-4.1732
X6.5884Y-5.1102
X6.6028Y-2.8642
X6.6091Y-2.9311
X6.6535Y-4.0945
X6.6535Y-4.3307
X6.6559Y-2.6394
X6.6929Y-4.1732
X6.6929Y-5.6299
X6.7323Y-5.6299
X6.7571Y-1.9075
X6.7695Y-5.198
X6.7717Y-5.0394
X6.7717Y-5.0787
X6.7717Y-5.6299
X6.7823Y-2.0831
X6.811Y-5.6299
X6.8228Y-3.2126
X6.8268Y-3.0701
X6.8457Y-2.5535
X6.8504Y-5.6299
X6.885Y-2.5535
X6.8898Y-5.0787
X6.8898Y-5.6299
X6.926Y-2.5535
X6.9291Y-5.0787
X6.9291Y-5.6299
X6.9685Y-4.3307
X6.9685Y-5.0787
X6.9685Y-5.6299
X6.9945Y-4.7244
X7.0079Y-5.0787
X7.0079Y-5.6299
X7.0472Y-5.0787
X7.0472Y-5.6299
X7.0866Y-5.0787
X7.0866Y-5.6299
X7.0988Y-3.2134
X7.1004Y-3.065
X7.126Y-5.0787
X7.126Y-5.6299
X7.1654Y-4.3307
X7.1654Y-5.0787
X7.1654Y-5.6299
X7.2047Y-5.0787
X7.2047Y-5.6299
X7.2441Y-5.0787
X7.2441Y-5.6299
X7.2787Y-2.4524
X7.2835Y-4.3307
X7.2835Y-5.0787
X7.2835Y-5.6299
X7.3134Y-2.9016
X7.3161Y-2.7516
X7.3181Y-4.7244
X7.328Y-2.4528
X7.3343Y-3.2126
X7.337Y-3.0583
X7.3622Y-4.3307
T3
X5.3467Y-5.5256
X5.6467Y-5.5256
X5.8439Y-5.5299
X6.1439Y-5.5299
X6.3526Y-5.5327
X6.6526Y-5.5327
T4
X7.2771Y-5.2913
X7.2771Y-5.4882
T5
X4.7622Y-1.8728
X4.7622Y-1.9728
X4.7622Y-2.0728
X4.7622Y-2.1728
X4.7622Y-2.2728
X4.7622Y-2.3728
X5.1205Y-1.8797
X5.1205Y-1.9797
X5.2622Y-5.1868
X5.2622Y-5.2868
T6
X3.7508Y-1.876
X3.7508Y-1.976
X3.7508Y-2.076
X3.7508Y-2.176
X3.7508Y-2.276
X3.7508Y-2.376
X3.7508Y-2.476
X3.7508Y-2.576
X3.7508Y-2.676
X3.7508Y-2.776
X3.7508Y-2.876
X3.7508Y-2.976
X3.7508Y-3.076
X3.7508Y-3.176
X3.7508Y-3.276
X3.7508Y-3.376
X3.7508Y-3.476
X3.7508Y-3.576
X3.7508Y-3.676
X3.7508Y-3.776
X4.0008Y-3.7669
X4.1008Y-3.7669
X4.2008Y-3.7669
X4.4508Y-1.876
X4.4508Y-1.976
X4.4508Y-2.076
X4.4508Y-2.176
X4.4508Y-2.276
X4.4508Y-2.376
X4.4508Y-2.476
X4.4508Y-2.576
X4.4508Y-2.676
X4.4508Y-2.776
X4.4508Y-2.876
X4.4508Y-2.976
X4.4508Y-3.076
X4.4508Y-3.176
X4.4508Y-3.276
X4.4508Y-3.376
X4.4508Y-3.476
X4.4508Y-3.576
X4.4508Y-3.676
X4.4508Y-3.776
T2
G00X7.3696Y-5.252
M15
G01X7.3971Y-5.252
M16
G05
G00X7.3971Y-5.5276
M15
G01X7.3696Y-5.5276
M16
G05
T5
G00X5.4528Y-2.2776
M15
G01X5.4528Y-2.1909
M16
G05
G00X5.685Y-2.1004
M15
G01X5.5984Y-2.1004
M16
G05
G00X5.6929Y-2.3484
M15
G01X5.5906Y-2.3484
M16
G05
G00X7.0504Y-2.1469
M15
G01X7.0504Y-2.0602
M16
G05
G00X7.2827Y-1.9697
M15
G01X7.1961Y-1.9697
M16
G05
G00X7.2906Y-2.2177
M15
G01X7.1882Y-2.2177
M16
G05
T0
M30
