<?xml version="1.0" encoding="UTF-8" standalone="no"?>
<svg width="308.328mm" height="195.439mm"
 viewBox="0 0 874 554"
 xmlns="http://www.w3.org/2000/svg" xmlns:xlink="http://www.w3.org/1999/xlink"  version="1.2" baseProfile="tiny">
<title>Qt SVG Document</title>
<desc>Generated with Qt</desc>
<defs>
</defs>
<g fill="none" stroke="black" stroke-width="1" fill-rule="evenodd" stroke-linecap="square" stroke-linejoin="bevel" >

<g fill="#f0f0f0" fill-opacity="1" stroke="none" transform="matrix(1,0,0,1,0,0)"
font-family="MS Shell Dlg 2" font-size="7.8" font-weight="400" font-style="normal" 
>
<rect x="0" y="0" width="874" height="554"/>
</g>

<g fill="none" stroke="#000000" stroke-opacity="1" stroke-width="1" stroke-linecap="square" stroke-linejoin="bevel" transform="matrix(1,0,0,1,0,0)"
font-family="MS Shell Dlg 2" font-size="7.8" font-weight="400" font-style="normal" 
>
</g>

<g fill="none" stroke="#000000" stroke-opacity="1" stroke-width="1" stroke-linecap="square" stroke-linejoin="bevel" transform="matrix(0.6,0,0,0.6,0,0)"
font-family="MS Shell Dlg 2" font-size="7.8" font-weight="400" font-style="normal" 
>
</g>

<g fill="none" stroke="#000000" stroke-opacity="1" stroke-width="1" stroke-linecap="square" stroke-linejoin="bevel" transform="matrix(0.6,0,0,0.6,0,0)"
font-family="MS Shell Dlg 2" font-size="7.8" font-weight="400" font-style="normal" 
>
</g>

<g fill="#ffffff" fill-opacity="1" stroke="none" transform="matrix(0.6,0,0,0.6,0,0)"
font-family="MS Shell Dlg 2" font-size="7.8" font-weight="400" font-style="normal" 
>
<rect x="80" y="2" width="1374.67" height="890.333"/>
</g>

<g fill="none" stroke="#000000" stroke-opacity="1" stroke-width="1" stroke-linecap="square" stroke-linejoin="bevel" transform="matrix(0.6,0,0,0.6,0,0)"
font-family="MS Shell Dlg 2" font-size="7.8" font-weight="400" font-style="normal" 
>
</g>

<g fill="none" stroke="#000000" stroke-opacity="1" stroke-width="1" stroke-linecap="square" stroke-linejoin="bevel" transform="matrix(0.6,0,0,0.6,0,0)"
font-family="MS Shell Dlg 2" font-size="7.8" font-weight="400" font-style="normal" 
>
</g>

<g fill="none" stroke="#000000" stroke-opacity="1" stroke-width="1" stroke-linecap="square" stroke-linejoin="bevel" transform="matrix(0.6,0,0,0.6,0,0)"
font-family="MS Shell Dlg 2" font-size="7.8" font-weight="400" font-style="normal" 
>
</g>

<g fill="none" stroke="#ff0056" stroke-opacity="1" stroke-width="1" stroke-linecap="square" stroke-linejoin="bevel" transform="matrix(0.6,0,0,0.6,0,0)"
font-family="MS Shell Dlg 2" font-size="7.8" font-weight="400" font-style="normal" 
>
<polyline fill="none" vector-effect="non-scaling-stroke" points="84,245.259 85.3517,245.259 86.7033,129.255 88.055,129.255 89.4067,187.783 90.7583,187.783 92.11,156.879 93.4617,156.879 94.8133,139.184 96.165,139.184 97.5167,181.42 98.8683,181.42 100.22,233.767 101.572,233.767 102.923,169.427 104.275,169.427 105.627,194.141 106.978,194.141 108.33,182.915 109.682,182.915 111.033,250.567 112.385,250.567 113.737,246.479 115.088,246.479 116.44,236.668 117.792,236.668 119.143,147.026 120.495,147.026 121.847,138.453 123.198,138.453 124.55,200.272 125.902,200.272 127.253,260.846 128.605,260.846 129.957,164.143 131.308,164.143 132.66,218.512 134.012,218.512 135.363,202.311 136.715,202.311 138.067,148.515 139.418,148.515 140.77,192.113 142.122,192.113 143.473,134.175 144.825,134.175 146.177,158.342 147.528,158.342 148.88,171.643 150.232,171.643 151.583,160.032 152.935,160.032 154.287,226.624 155.638,226.624 156.99,139.21 158.342,139.21 159.693,159.609 161.045,159.609 162.397,159.711 163.748,159.711 165.1,199.274 166.452,199.274 167.803,202.77 169.155,202.77 170.507,195.428 171.858,195.428 173.21,238.603 174.562,238.603 175.913,168.877 177.265,168.877 178.617,150.478 179.968,150.478 181.32,180.07 182.672,180.07 184.023,119.426 185.375,119.426 186.727,188.4 188.078,188.4 189.43,120.324 190.782,120.324 192.133,190.615 193.485,190.615 194.837,187.597 196.188,187.597 197.54,196.633 198.892,196.633 200.243,181.405 201.595,181.405 202.947,180.438 204.298,180.438 205.65,172.286 207.002,172.286 208.353,206.723 209.705,206.723 211.057,227.062 212.408,227.062 213.76,193.31 215.112,193.31 216.463,180.23 217.815,180.23 219.167,205.954 220.518,205.954 221.87,257.735 223.222,257.735 224.573,240.515 225.925,240.515 227.277,189.639 228.628,189.639 229.98,183.216 231.332,183.216 232.683,214.317 234.035,214.317 235.387,215.259 236.738,215.259 238.09,164.168 239.442,164.168 240.793,290.055 242.145,290.055 243.497,218.019 244.848,218.019 246.2,172.753 247.552,172.753 248.903,168.663 250.255,168.663 251.607,248.019 252.958,248.019 254.31,126.826 255.662,126.826 257.013,208.871 258.365,208.871 259.717,262.064 261.068,262.064 262.42,176.149 263.772,176.149 265.123,150.153 266.475,150.153 267.827,158.1 269.178,158.1 270.53,219.37 271.882,219.37 273.233,205.64 274.585,205.64 275.937,83.9693 277.288,83.9693 278.64,206.95 279.992,206.95 281.343,243.655 282.695,243.655 284.047,197.978 285.398,197.978 286.75,172.983 288.102,172.983 289.453,192.219 290.805,192.219 292.157,168.835 293.508,168.835 294.86,166.891 296.212,166.891 297.563,147.308 298.915,147.308 300.267,156.386 301.618,156.386 302.97,224.298 304.322,224.298 305.673,191.715 307.025,191.715 308.377,193.106 309.728,193.106 311.08,192.449 312.432,192.449 313.783,154.811 315.135,154.811 316.487,168.031 317.838,168.031 319.19,177.068 320.542,177.068 321.893,159.174 323.245,159.174 324.597,161.386 325.948,161.386 327.3,199.436 328.652,199.436 330.003,273.686 331.355,273.686 332.707,193.849 334.058,193.849 335.41,187.717 336.762,187.717 338.113,157.183 339.465,157.183 340.817,154.162 342.168,154.162 343.52,204.635 344.872,204.635 346.223,225.53 347.575,225.53 348.927,171.121 350.278,171.121 351.63,150.588 352.982,150.588 354.333,175.249 355.685,175.249 357.037,168.12 358.388,168.12 359.74,160.921 361.092,160.921 362.443,164.062 363.795,164.062 365.147,208.959 366.498,208.959 367.85,162.219 369.202,162.219 370.553,138.207 371.905,138.207 373.257,177.357 374.608,177.357 375.96,267.167 377.312,267.167 378.663,236.971 380.015,236.971 381.367,137.059 382.718,137.059 384.07,138.152 385.422,138.152 386.773,162.102 388.125,162.102 389.477,165.351 390.828,165.351 392.18,179.413 393.532,179.413 394.883,100.432 396.235,100.432 397.587,106.668 398.938,106.668 400.29,150.739 401.642,150.739 402.993,248.713 404.345,248.713 405.697,175.545 407.048,175.545 408.4,218.975 409.752,218.975 411.103,212.197 412.455,212.197 413.807,92.211 415.158,92.211 416.51,211.514 417.862,211.514 419.213,204.258 420.565,204.258 421.917,163.173 423.268,163.173 424.62,128.199 425.972,128.199 427.323,155.396 428.675,155.396 430.027,189.113 431.378,189.113 432.73,217.495 434.082,217.495 435.433,151.646 436.785,151.646 438.137,164.279 439.488,164.279 440.84,229.867 442.192,229.867 443.543,172.318 444.895,172.318 446.247,147.283 447.598,147.283 448.95,215.546 450.302,215.546 451.653,246.623 453.005,246.623 454.357,222.837 455.708,222.837 457.06,299.174 458.412,299.174 459.763,241.237 461.115,241.237 462.467,154.699 463.818,154.699 465.17,125.711 466.522,125.711 467.873,204.938 469.225,204.938 470.577,152.581 471.928,152.581 473.28,174.299 474.632,174.299 475.983,149.313 477.335,149.313 478.687,175.223 480.038,175.223 481.39,109.089 482.742,109.089 484.093,130.9 485.445,130.9 486.797,169.603 488.148,169.603 489.5,203.378 490.852,203.378 492.203,133.476 493.555,133.476 494.907,193.826 496.258,193.826 497.61,239.123 498.962,239.123 500.313,211.368 501.665,211.368 503.017,185.903 504.368,185.903 505.72,157.342 507.072,157.342 508.423,269.2 509.775,269.2 511.127,239.433 512.478,239.433 513.83,98.3099 515.182,98.3099 516.533,228.61 517.885,228.61 519.237,211.685 520.588,211.685 521.94,213.764 523.292,213.764 524.643,144.878 525.995,144.878 527.347,200.379 528.698,200.379 530.05,190.755 531.402,190.755 532.753,176.623 534.105,176.623 535.457,236.41 536.808,236.41 538.16,178.382 539.512,178.382 540.863,166.59 542.215,166.59 543.567,209.866 544.918,209.866 546.27,169.807 547.622,169.807 548.973,207.672 550.325,207.672 551.677,272.501 553.028,272.501 554.38,219.071 555.732,219.071 557.083,200.999 558.435,200.999 559.787,152.392 561.138,152.392 562.49,176.7 563.842,176.7 565.193,98.5423 566.545,98.5423 567.897,185.225 569.248,185.225 570.6,197.92 571.952,197.92 573.303,177.128 574.655,177.128 576.007,132.076 577.358,132.076 578.71,142.131 580.062,142.131 581.413,187.977 582.765,187.977 584.117,211.537 585.468,211.537 586.82,189.305 588.172,189.305 589.523,195.196 590.875,195.196 592.227,160.632 593.578,160.632 594.93,157.412 596.282,157.412 597.633,237.896 598.985,237.896 600.337,171.464 601.688,171.464 603.04,207.188 604.392,207.188 605.743,139.906 607.095,139.906 608.447,237.529 609.798,237.529 611.15,218.011 612.502,218.011 613.853,248.231 615.205,248.231 616.557,233.265 617.908,233.265 619.26,197.214 620.612,197.214 621.963,253.782 623.315,253.782 624.667,196.316 626.018,196.316 627.37,240.741 628.722,240.741 630.073,225.261 631.425,225.261 632.777,126.702 634.128,126.702 635.48,136.465 636.832,136.465 638.183,277.019 639.535,277.019 640.887,242.005 642.238,242.005 643.59,136.476 644.942,136.476 646.293,203.138 647.645,203.138 648.997,152.685 650.348,152.685 651.7,196.564 653.052,196.564 654.403,203.878 655.755,203.878 657.107,134.587 658.458,134.587 659.81,221.794 661.162,221.794 662.513,190.683 663.865,190.683 665.217,209.485 666.568,209.485 667.92,181.957 669.272,181.957 670.623,216.422 671.975,216.422 673.327,156.153 674.678,156.153 676.03,180.332 677.382,180.332 678.733,166.067 680.085,166.067 681.437,196.36 682.788,196.36 684.14,210.956 685.492,210.956 686.843,212.678 688.195,212.678 689.547,213.2 690.898,213.2 692.25,277.493 693.602,277.493 694.953,167.62 696.305,167.62 697.657,238.97 699.008,238.97 700.36,192.914 701.712,192.914 703.063,168.943 704.415,168.943 705.767,86.6913 707.118,86.6913 708.47,251.741 709.822,251.741 711.173,277.102 712.525,277.102 713.877,183.933 715.228,183.933 716.58,225.184 717.932,225.184 719.283,135.61 720.635,135.61 721.987,135.39 723.338,135.39 724.69,194.125 726.042,194.125 727.393,209.292 728.745,209.292 730.097,148.825 731.448,148.825 732.8,171.878 734.152,171.878 735.503,145.77 736.855,145.77 738.207,232.996 739.558,232.996 740.91,104.826 742.262,104.826 743.613,196.935 744.965,196.935 746.317,200.006 747.668,200.006 749.02,200.066 750.372,200.066 751.723,194.474 753.075,194.474 754.427,195.187 755.778,195.187 757.13,193.953 758.482,193.953 759.833,121.267 761.185,121.267 762.537,160.62 763.888,160.62 765.24,264.089 766.592,264.089 767.943,141.489 769.295,141.489 770.647,231.929 771.998,231.929 773.35,184.324 774.702,184.324 776.053,233.369 777.405,233.369 778.757,200.282 780.108,200.282 781.46,166.675 782.812,166.675 784.163,180.866 785.515,180.866 786.867,183.024 788.218,183.024 789.57,234.038 790.922,234.038 792.273,259.682 793.625,259.682 794.977,230.638 796.328,230.638 797.68,255.643 799.032,255.643 800.383,108.839 801.735,108.839 803.087,208.429 804.438,208.429 805.79,172.51 807.142,172.51 808.493,186.489 809.845,186.489 811.197,193.898 812.548,193.898 813.9,256.365 815.252,256.365 816.603,150.211 817.955,150.211 819.307,194.455 820.658,194.455 822.01,274.708 823.362,274.708 824.713,152.6 826.065,152.6 827.417,180.586 828.768,180.586 830.12,193.638 831.472,193.638 832.823,163.069 834.175,163.069 835.527,168.87 836.878,168.87 838.23,238.864 839.582,238.864 840.933,192.358 842.285,192.358 843.637,172.029 844.988,172.029 846.34,161.874 847.692,161.874 849.043,157.107 850.395,157.107 851.747,203.244 853.098,203.244 854.45,236.605 855.802,236.605 857.153,169.129 858.505,169.129 859.857,219.743 861.208,219.743 862.56,160.167 863.912,160.167 865.263,225.775 866.615,225.775 867.967,188.018 869.318,188.018 870.67,229.149 872.022,229.149 873.373,188.273 874.725,188.273 876.077,211.163 877.428,211.163 878.78,140.466 880.132,140.466 881.483,207.452 882.835,207.452 884.187,161.949 885.538,161.949 886.89,190.042 888.242,190.042 889.593,225.08 890.945,225.08 892.297,210.415 893.648,210.415 895,214.551 896.352,214.551 897.703,231.973 899.055,231.973 900.407,267.542 901.758,267.542 903.11,119.665 904.462,119.665 905.813,164.344 907.165,164.344 908.517,277.644 909.868,277.644 911.22,181.57 912.572,181.57 913.923,204.716 915.275,204.716 916.627,151.41 917.978,151.41 919.33,144.177 920.682,144.177 922.033,194.754 923.385,194.754 924.737,181.748 926.088,181.748 927.44,206.901 928.792,206.901 930.143,205.637 931.495,205.637 932.847,109.196 934.198,109.196 935.55,219.144 936.902,219.144 938.253,163.712 939.605,163.712 940.957,232.95 942.308,232.95 943.66,200.462 945.012,200.462 946.363,223.932 947.715,223.932 949.067,195.957 950.418,195.957 951.77,138.242 953.122,138.242 954.473,150.008 955.825,150.008 957.177,144.598 958.528,144.598 959.88,147.184 961.232,147.184 962.583,182.757 963.935,182.757 965.287,193.323 966.638,193.323 967.99,184.639 969.342,184.639 970.693,196.703 972.045,196.703 973.397,148.13 974.748,148.13 976.1,217.993 977.452,217.993 978.803,218.208 980.155,218.208 981.507,140.369 982.858,140.369 984.21,191.567 985.562,191.567 986.913,207.103 988.265,207.103 989.617,177.635 990.968,177.635 992.32,229.356 993.672,229.356 995.023,174.885 996.375,174.885 997.727,180.223 999.078,180.223 1000.43,184.076 1001.78,184.076 1003.13,212.896 1004.49,212.896 1005.84,173.976 1007.19,173.976 1008.54,168.969 1009.89,168.969 1011.24,208.059 1012.6,208.059 1013.95,224.013 1015.3,224.013 1016.65,201.003 1018,201.003 1019.35,264.587 1020.71,264.587 1022.06,179.024 1023.41,179.024 1024.76,248.687 1026.11,248.687 1027.46,263.094 1028.82,263.094 1030.17,270.528 1031.52,270.528 1032.87,206.584 1034.22,206.584 1035.57,159.162 1036.93,159.162 1038.28,142.913 1039.63,142.913 1040.98,200.08 1042.33,200.08 1043.68,175.343 1045.04,175.343 1046.39,232.038 1047.74,232.038 1049.09,189.335 1050.44,189.335 1051.79,164.768 1053.14,164.768 1054.5,207.492 1055.85,207.492 1057.2,278.537 1058.55,278.537 1059.9,149.764 1061.26,149.764 1062.61,215.155 1063.96,215.155 1065.31,198.328 1066.66,198.328 1068.01,156.805 1069.37,156.805 1070.72,198.245 1072.07,198.245 1073.42,196.14 1074.77,196.14 1076.12,224.161 1077.48,224.161 1078.83,233.475 1080.18,233.475 1081.53,191.386 1082.88,191.386 1084.23,194.988 1085.59,194.988 1086.94,126.243 1088.29,126.243 1089.64,95.6267 1090.99,95.6267 1092.34,255.282 1093.7,255.282 1095.05,180.577 1096.4,180.577 1097.75,159.984 1099.1,159.984 1100.45,96.5299 1101.81,96.5299 1103.16,195 1104.51,195 1105.86,168.582 1107.21,168.582 1108.56,262.057 1109.92,262.057 1111.27,180.531 1112.62,180.531 1113.97,132.449 1115.32,132.449 1116.67,222.057 1118.03,222.057 1119.38,153.862 1120.73,153.862 1122.08,228.943 1123.43,228.943 1124.78,125.104 1126.13,125.104 1127.49,145.66 1128.84,145.66 1130.19,225.724 1131.54,225.724 1132.89,229.038 1134.25,229.038 1135.6,261.117 1136.95,261.117 1138.3,192.668 1139.65,192.668 1141,223.256 1142.36,223.256 1143.71,104.81 1145.06,104.81 1146.41,181.072 1147.76,181.072 1149.11,255.206 1150.47,255.206 1151.82,139.934 1153.17,139.934 1154.52,266.545 1155.87,266.545 1157.22,137.997 1158.58,137.997 1159.93,195.206 1161.28,195.206 1162.63,234.284 1163.98,234.284 1165.33,347.752 1166.69,347.752 1168.04,264.163 1169.39,264.163 1170.74,132.587 1172.09,132.587 1173.44,161.102 1174.8,161.102 1176.15,158.512 1177.5,158.512 1178.85,195.879 1180.2,195.879 1181.55,186.081 1182.91,186.081 1184.26,204.735 1185.61,204.735 1186.96,162.687 1188.31,162.687 1189.66,182.979 1191.02,182.979 1192.37,159.636 1193.72,159.636 1195.07,74.5867 1196.42,74.5867 1197.77,212.38 1199.13,212.38 1200.48,209.448 1201.83,209.448 1203.18,239.903 1204.53,239.903 1205.88,178.966 1207.24,178.966 1208.59,145.829 1209.94,145.829 1211.29,200.307 1212.64,200.307 1213.99,175.728 1215.35,175.728 1216.7,163.034 1218.05,163.034 1219.4,151.922 1220.75,151.922 1222.1,168.921 1223.46,168.921 1224.81,186.66 1226.16,186.66 1227.51,247.977 1228.86,247.977 1230.21,191.704 1231.57,191.704 1232.92,177.769 1234.27,177.769 1235.62,169.529 1236.97,169.529 1238.32,127.444 1239.68,127.444 1241.03,249.215 1242.38,249.215 1243.73,195.81 1245.08,195.81 1246.43,156.938 1247.79,156.938 1249.14,171.15 1250.49,171.15 1251.84,203.161 1253.19,203.161 1254.54,208.661 1255.9,208.661 1257.25,243.59 1258.6,243.59 1259.95,182.329 1261.3,182.329 1262.65,205.172 1264.01,205.172 1265.36,133.516 1266.71,133.516 1268.06,231.05 1269.41,231.05 1270.76,236.1 1272.12,236.1 1273.47,161.451 1274.82,161.451 1276.17,244.547 1277.52,244.547 1278.87,222.868 1280.23,222.868 1281.58,165.083 1282.93,165.083 1284.28,71.9211 1285.63,71.9211 1286.98,209.225 1288.34,209.225 1289.69,159.886 1291.04,159.886 1292.39,172.094 1293.74,172.094 1295.09,139.289 1296.45,139.289 1297.8,132.738 1299.15,132.738 1300.5,216.204 1301.85,216.204 1303.2,106.383 1304.56,106.383 1305.91,191.028 1307.26,191.028 1308.61,181.177 1309.96,181.177 1311.31,166.881 1312.67,166.881 1314.02,219.386 1315.37,219.386 1316.72,255.238 1318.07,255.238 1319.42,207.712 1320.78,207.712 1322.13,268.32 1323.48,268.32 1324.83,147.614 1326.18,147.614 1327.53,179.697 1328.89,179.697 1330.24,156.729 1331.59,156.729 1332.94,71.5214 1334.29,71.5214 1335.64,211.211 1337,211.211 1338.35,171.071 1339.7,171.071 1341.05,145.107 1342.4,145.107 1343.75,215.199 1345.11,215.199 1346.46,150.839 1347.81,150.839 1349.16,219.109 1350.51,219.109 1351.86,191.905 1353.22,191.905 1354.57,208.811 1355.92,208.811 1357.27,173.05 1358.62,173.05 1359.97,180.456 1361.33,180.456 1362.68,180.57 1364.03,180.57 1365.38,246.31 1366.73,246.31 1368.08,262.814 1369.44,262.814 1370.79,134.074 1372.14,134.074 1373.49,214.97 1374.84,214.97 1376.19,174.975 1377.55,174.975 1378.9,171.332 1380.25,171.332 1381.6,251.571 1382.95,251.571 1384.3,272.817 1385.66,272.817 1387.01,249.879 1388.36,249.879 1389.71,235.105 1391.06,235.105 1392.41,208.202 1393.77,208.202 1395.12,264.909 1396.47,264.909 1397.82,187.452 1399.17,187.452 1400.52,236.531 1401.88,236.531 1403.23,137.384 1404.58,137.384 1405.93,268.227 1407.28,268.227 1408.63,180.669 1409.99,180.669 1411.34,288.097 1412.69,288.097 1414.04,151.116 1415.39,151.116 1416.74,194.74 1418.1,194.74 1419.45,194.411 1420.8,194.411 1422.15,161.217 1423.5,161.217 1424.85,229.62 1426.21,229.62 1427.56,185.683 1428.91,185.683 1430.26,232.758 1431.61,232.758 1432.96,221.678 1434.32,221.678 " />
</g>

<g fill="none" stroke="#000000" stroke-opacity="1" stroke-width="1" stroke-linecap="square" stroke-linejoin="bevel" transform="matrix(0.6,0,0,0.6,0,0)"
font-family="MS Shell Dlg 2" font-size="7.8" font-weight="400" font-style="normal" 
>
</g>

<g fill="none" stroke="#000000" stroke-opacity="1" stroke-width="1" stroke-linecap="square" stroke-linejoin="bevel" transform="matrix(0.6,0,0,0.6,0,0)"
font-family="MS Shell Dlg 2" font-size="7.8" font-weight="400" font-style="normal" 
>
</g>

<g fill="none" stroke="#000000" stroke-opacity="1" stroke-width="1" stroke-linecap="square" stroke-linejoin="bevel" transform="matrix(0.6,0,0,0.6,0,0)"
font-family="MS Shell Dlg 2" font-size="7.8" font-weight="400" font-style="normal" 
>
</g>

<g fill="none" stroke="#7e2dd2" stroke-opacity="1" stroke-width="1" stroke-linecap="square" stroke-linejoin="bevel" transform="matrix(0.6,0,0,0.6,0,0)"
font-family="MS Shell Dlg 2" font-size="7.8" font-weight="400" font-style="normal" 
>
<polyline fill="none" vector-effect="non-scaling-stroke" points="84,728.886 85.3517,779.816 86.7033,779.816 88.055,743.085 89.4067,743.085 90.7583,758.74 92.11,758.74 93.4617,798.335 94.8133,798.335 96.165,806.614 97.5167,806.614 98.8683,732.898 100.22,732.898 101.572,730.393 102.923,730.393 104.275,733.645 105.627,733.645 106.978,804.365 108.33,804.365 109.682,663.551 111.033,663.551 112.385,749.625 113.737,749.625 115.088,683.779 116.44,683.779 117.792,751.038 119.143,751.038 120.495,757.766 121.847,757.766 123.198,799.927 124.55,799.927 125.902,838.475 127.253,838.475 128.605,710.54 129.957,710.54 131.308,741.853 132.66,741.853 134.012,771.538 135.363,771.538 136.715,782.597 138.067,782.597 139.418,690.366 140.77,690.366 142.122,635.151 143.473,635.151 144.825,827.258 146.177,827.258 147.528,832.717 148.88,832.717 150.232,727.201 151.583,727.201 152.935,808.593 154.287,808.593 155.638,752.811 156.99,752.811 158.342,699.704 159.693,699.704 161.045,692.945 162.397,692.945 163.748,854.009 165.1,854.009 166.452,767.483 167.803,767.483 169.155,824.247 170.507,824.247 171.858,798.274 173.21,798.274 174.562,733.546 175.913,733.546 177.265,760.518 178.617,760.518 179.968,708.349 181.32,708.349 182.672,757.692 184.023,757.692 185.375,779.596 186.727,779.596 188.078,730.201 189.43,730.201 190.782,701.629 192.133,701.629 193.485,757.507 194.837,757.507 196.188,743.57 197.54,743.57 198.892,735.849 200.243,735.849 201.595,801.652 202.947,801.652 204.298,744.827 205.65,744.827 207.002,686.818 208.353,686.818 209.705,704.476 211.057,704.476 212.408,730.937 213.76,730.937 215.112,800.298 216.463,800.298 217.815,750.818 219.167,750.818 220.518,723.977 221.87,723.977 223.222,800.985 224.573,800.985 225.925,743.994 227.277,743.994 228.628,762.9 229.98,762.9 231.332,709.385 232.683,709.385 234.035,735.981 235.387,735.981 236.738,793.023 238.09,793.023 239.442,766.472 240.793,766.472 242.145,740.95 243.497,740.95 244.848,769.619 246.2,769.619 247.552,798.45 248.903,798.45 250.255,715.374 251.607,715.374 252.958,770.793 254.31,770.793 255.662,711.617 257.013,711.617 258.365,726.248 259.717,726.248 261.068,724.56 262.42,724.56 263.772,747.896 265.123,747.896 266.475,774.971 267.827,774.971 269.178,800.001 270.53,800.001 271.882,731.435 273.233,731.435 274.585,833.728 275.937,833.728 277.288,700.34 278.64,700.34 279.992,699.132 281.343,699.132 282.695,773.774 284.047,773.774 285.398,753.394 286.75,753.394 288.102,766.992 289.453,766.992 290.805,715.968 292.157,715.968 293.508,756.525 294.86,756.525 296.212,750.589 297.563,750.589 298.915,737.103 300.267,737.103 301.618,754.947 302.97,754.947 304.322,782.315 305.673,782.315 307.025,812.519 308.377,812.519 309.728,726.426 311.08,726.426 312.432,706.448 313.783,706.448 315.135,784.475 316.487,784.475 317.838,783.158 319.19,783.158 320.542,762.354 321.893,762.354 323.245,792.111 324.597,792.111 325.948,774.232 327.3,774.232 328.652,719.531 330.003,719.531 331.355,727.333 332.707,727.333 334.058,661.503 335.41,661.503 336.762,799.307 338.113,799.307 339.465,759.63 340.817,759.63 342.168,754.87 343.52,754.87 344.872,731.965 346.223,731.965 347.575,731.752 348.927,731.752 350.278,814.605 351.63,814.605 352.982,769.179 354.333,769.179 355.685,720.922 357.037,720.922 358.388,815.998 359.74,815.998 361.092,750.655 362.443,750.655 363.795,690.883 365.147,690.883 366.498,713.688 367.85,713.688 369.202,737.032 370.553,737.032 371.905,800.288 373.257,800.288 374.608,813.259 375.96,813.259 377.312,798.717 378.663,798.717 380.015,807.341 381.367,807.341 382.718,740.187 384.07,740.187 385.422,719.096 386.773,719.096 388.125,766.886 389.477,766.886 390.828,816.07 392.18,816.07 393.532,692.713 394.883,692.713 396.235,746.374 397.587,746.374 398.938,704.178 400.29,704.178 401.642,737.914 402.993,737.914 404.345,759.715 405.697,759.715 407.048,716.614 408.4,716.614 409.752,705.319 411.103,705.319 412.455,786.884 413.807,786.884 415.158,695.85 416.51,695.85 417.862,757.572 419.213,757.572 420.565,780.85 421.917,780.85 423.268,786.123 424.62,786.123 425.972,754.678 427.323,754.678 428.675,721.456 430.027,721.456 431.378,712.101 432.73,712.101 434.082,752.41 435.433,752.41 436.785,751.107 438.137,751.107 439.488,831.142 440.84,831.142 442.192,718.235 443.543,718.235 444.895,777.633 446.247,777.633 447.598,704.881 448.95,704.881 450.302,781.626 451.653,781.626 453.005,713.475 454.357,713.475 455.708,771.015 457.06,771.015 458.412,668.472 459.763,668.472 461.115,736.194 462.467,736.194 463.818,759.97 465.17,759.97 466.522,748.561 467.873,748.561 469.225,783.965 470.577,783.965 471.928,691.649 473.28,691.649 474.632,731.215 475.983,731.215 477.335,839.943 478.687,839.943 480.038,778.836 481.39,778.836 482.742,753.23 484.093,753.23 485.445,730.845 486.797,730.845 488.148,706.185 489.5,706.185 490.852,811.383 492.203,811.383 493.555,768.8 494.907,768.8 496.258,792.416 497.61,792.416 498.962,724.697 500.313,724.697 501.665,734.515 503.017,734.515 504.368,754.234 505.72,754.234 507.072,737.092 508.423,737.092 509.775,732.018 511.127,732.018 512.478,711.635 513.83,711.635 515.182,669.775 516.533,669.775 517.885,766.617 519.237,766.617 520.588,818.007 521.94,818.007 523.292,841.177 524.643,841.177 525.995,793.166 527.347,793.166 528.698,761.576 530.05,761.576 531.402,846.259 532.753,846.259 534.105,786.546 535.457,786.546 536.808,706.539 538.16,706.539 539.512,684.408 540.863,684.408 542.215,732.354 543.567,732.354 544.918,725.437 546.27,725.437 547.622,805.814 548.973,805.814 550.325,738.008 551.677,738.008 553.028,713.459 554.38,713.459 555.732,815.704 557.083,815.704 558.435,749.707 559.787,749.707 561.138,745.746 562.49,745.746 563.842,720.2 565.193,720.2 566.545,710.172 567.897,710.172 569.248,694.896 570.6,694.896 571.952,738.987 573.303,738.987 574.655,735.655 576.007,735.655 577.358,753.274 578.71,753.274 580.062,787.257 581.413,787.257 582.765,745.883 584.117,745.883 585.468,730.47 586.82,730.47 588.172,781.426 589.523,781.426 590.875,779.489 592.227,779.489 593.578,742.515 594.93,742.515 596.282,807.285 597.633,807.285 598.985,821.9 600.337,821.9 601.688,634.084 603.04,634.084 604.392,853.779 605.743,853.779 607.095,791.958 608.447,791.958 609.798,777.91 611.15,777.91 612.502,820.847 613.853,820.847 615.205,832.508 616.557,832.508 617.908,722.389 619.26,722.389 620.612,826.277 621.963,826.277 623.315,725.09 624.667,725.09 626.018,740.587 627.37,740.587 628.722,677.876 630.073,677.876 631.425,758.171 632.777,758.171 634.128,671.219 635.48,671.219 636.832,678.529 638.183,678.529 639.535,787.018 640.887,787.018 642.238,828.073 643.59,828.073 644.942,732.778 646.293,732.778 647.645,802.895 648.997,802.895 650.348,767.008 651.7,767.008 653.052,666.074 654.403,666.074 655.755,810.487 657.107,810.487 658.458,770.712 659.81,770.712 661.162,830.988 662.513,830.988 663.865,718.38 665.217,718.38 666.568,729.541 667.92,729.541 669.272,704.434 670.623,704.434 671.975,722.229 673.327,722.229 674.678,755.676 676.03,755.676 677.382,805.202 678.733,805.202 680.085,705.708 681.437,705.708 682.788,754.894 684.14,754.894 685.492,718.392 686.843,718.392 688.195,725.155 689.547,725.155 690.898,717.293 692.25,717.293 693.602,788.981 694.953,788.981 696.305,723.002 697.657,723.002 699.008,733.189 700.36,733.189 701.712,775.013 703.063,775.013 704.415,766.129 705.767,766.129 707.118,725.757 708.47,725.757 709.822,713.235 711.173,713.235 712.525,735.407 713.877,735.407 715.228,774.783 716.58,774.783 717.932,758.206 719.283,758.206 720.635,727.556 721.987,727.556 723.338,762.041 724.69,762.041 726.042,763.904 727.393,763.904 728.745,822.712 730.097,822.712 731.448,742.122 732.8,742.122 734.152,795.206 735.503,795.206 736.855,683.765 738.207,683.765 739.558,743.663 740.91,743.663 742.262,744.924 743.613,744.924 744.965,797.671 746.317,797.671 747.668,712.033 749.02,712.033 750.372,702.546 751.723,702.546 753.075,652.967 754.427,652.967 755.778,748.519 757.13,748.519 758.482,677.018 759.833,677.018 761.185,767.77 762.537,767.77 763.888,820.458 765.24,820.458 766.592,730.734 767.943,730.734 769.295,742.357 770.647,742.357 771.998,734.507 773.35,734.507 774.702,711.712 776.053,711.712 777.405,833.732 778.757,833.732 780.108,827.74 781.46,827.74 782.812,703.844 784.163,703.844 785.515,658.779 786.867,658.779 788.218,791.493 789.57,791.493 790.922,824.948 792.273,824.948 793.625,831.596 794.977,831.596 796.328,726.673 797.68,726.673 799.032,699.958 800.383,699.958 801.735,799.958 803.087,799.958 804.438,736.265 805.79,736.265 807.142,710.628 808.493,710.628 809.845,794.041 811.197,794.041 812.548,702.787 813.9,702.787 815.252,772.235 816.603,772.235 817.955,751.676 819.307,751.676 820.658,719.987 822.01,719.987 823.362,758.273 824.713,758.273 826.065,773.707 827.417,773.707 828.768,821.085 830.12,821.085 831.472,740.735 832.823,740.735 834.175,766.9 835.527,766.9 836.878,701.817 838.23,701.817 839.582,832.798 840.933,832.798 842.285,684.88 843.637,684.88 844.988,750.195 846.34,750.195 847.692,622.17 849.043,622.17 850.395,717.904 851.747,717.904 853.098,759.051 854.45,759.051 855.802,718.221 857.153,718.221 858.505,706.251 859.857,706.251 861.208,746.584 862.56,746.584 863.912,735.571 865.263,735.571 866.615,738.578 867.967,738.578 869.318,746.403 870.67,746.403 872.022,816.556 873.373,816.556 874.725,750.839 876.077,750.839 877.428,687.01 878.78,687.01 880.132,749.922 881.483,749.922 882.835,715.491 884.187,715.491 885.538,774.195 886.89,774.195 888.242,777.938 889.593,777.938 890.945,798.163 892.297,798.163 893.648,745.443 895,745.443 896.352,753.174 897.703,753.174 899.055,735.284 900.407,735.284 901.758,682.872 903.11,682.872 904.462,700.625 905.813,700.625 907.165,723.604 908.517,723.604 909.868,821.488 911.22,821.488 912.572,708.895 913.923,708.895 915.275,827.229 916.627,827.229 917.978,778.973 919.33,778.973 920.682,724.181 922.033,724.181 923.385,755.231 924.737,755.231 926.088,810.318 927.44,810.318 928.792,762.986 930.143,762.986 931.495,745.932 932.847,745.932 934.198,739.15 935.55,739.15 936.902,726.764 938.253,726.764 939.605,686.469 940.957,686.469 942.308,849.958 943.66,849.958 945.012,801.821 946.363,801.821 947.715,714.721 949.067,714.721 950.418,706.833 951.77,706.833 953.122,724.458 954.473,724.458 955.825,686.575 957.177,686.575 958.528,756.9 959.88,756.9 961.232,757.039 962.583,757.039 963.935,708.851 965.287,708.851 966.638,764.708 967.99,764.708 969.342,785.489 970.693,785.489 972.045,794.314 973.397,794.314 974.748,672.439 976.1,672.439 977.452,730.583 978.803,730.583 980.155,685.207 981.507,685.207 982.858,660.165 984.21,660.165 985.562,727.836 986.913,727.836 988.265,812.007 989.617,812.007 990.968,755.417 992.32,755.417 993.672,647.479 995.023,647.479 996.375,718.716 997.727,718.716 999.078,761.551 1000.43,761.551 1001.78,631.403 1003.13,631.403 1004.49,810.64 1005.84,810.64 1007.19,708.305 1008.54,708.305 1009.89,730.995 1011.24,730.995 1012.6,816.695 1013.95,816.695 1015.3,721.501 1016.65,721.501 1018,698.762 1019.35,698.762 1020.71,674.99 1022.06,674.99 1023.41,805.524 1024.76,805.524 1026.11,767.268 1027.46,767.268 1028.82,682.559 1030.17,682.559 1031.52,753.075 1032.87,753.075 1034.22,837.626 1035.57,837.626 1036.93,782.123 1038.28,782.123 1039.63,702.567 1040.98,702.567 1042.33,682.187 1043.68,682.187 1045.04,692.776 1046.39,692.776 1047.74,785.009 1049.09,785.009 1050.44,777.251 1051.79,777.251 1053.14,716.119 1054.5,716.119 1055.85,748.848 1057.2,748.848 1058.55,766.825 1059.9,766.825 1061.26,747.249 1062.61,747.249 1063.96,782.79 1065.31,782.79 1066.66,755.134 1068.01,755.134 1069.37,755.746 1070.72,755.746 1072.07,789.092 1073.42,789.092 1074.77,768.92 1076.12,768.92 1077.48,794.196 1078.83,794.196 1080.18,726.422 1081.53,726.422 1082.88,789.088 1084.23,789.088 1085.59,836.145 1086.94,836.145 1088.29,717.033 1089.64,717.033 1090.99,734.786 1092.34,734.786 1093.7,859.797 1095.05,859.797 1096.4,726.75 1097.75,726.75 1099.1,736.418 1100.45,736.418 1101.81,848.585 1103.16,848.585 1104.51,832.254 1105.86,832.254 1107.21,737.516 1108.56,737.516 1109.92,733.592 1111.27,733.592 1112.62,786.139 1113.97,786.139 1115.32,720.232 1116.67,720.232 1118.03,758.278 1119.38,758.278 1120.73,702.68 1122.08,702.68 1123.43,677.935 1124.78,677.935 1126.13,701.903 1127.49,701.903 1128.84,637.762 1130.19,637.762 1131.54,736.935 1132.89,736.935 1134.25,737.964 1135.6,737.964 1136.95,655.212 1138.3,655.212 1139.65,713.927 1141,713.927 1142.36,666.588 1143.71,666.588 1145.06,789.935 1146.41,789.935 1147.76,757.32 1149.11,757.32 1150.47,794.733 1151.82,794.733 1153.17,786.664 1154.52,786.664 1155.87,722.156 1157.22,722.156 1158.58,709.309 1159.93,709.309 1161.28,694.137 1162.63,694.137 1163.98,718.019 1165.33,718.019 1166.69,695.606 1168.04,695.606 1169.39,659.934 1170.74,659.934 1172.09,777.237 1173.44,777.237 1174.8,827.258 1176.15,827.258 1177.5,763.4 1178.85,763.4 1180.2,818.35 1181.55,818.35 1182.91,648.046 1184.26,648.046 1185.61,758.762 1186.96,758.762 1188.31,786.787 1189.66,786.787 1191.02,862.418 1192.37,862.418 1193.72,665.118 1195.07,665.118 1196.42,654.837 1197.77,654.837 1199.13,742.268 1200.48,742.268 1201.83,787.009 1203.18,787.009 1204.53,744.853 1205.88,744.853 1207.24,654.128 1208.59,654.128 1209.94,790.011 1211.29,790.011 1212.64,726.812 1213.99,726.812 1215.35,651.941 1216.7,651.941 1218.05,732.578 1219.4,732.578 1220.75,692.98 1222.1,692.98 1223.46,694.401 1224.81,694.401 1226.16,694.19 1227.51,694.19 1228.86,808.457 1230.21,808.457 1231.57,758.372 1232.92,758.372 1234.27,759.69 1235.62,759.69 1236.97,822.178 1238.32,822.178 1239.68,691.491 1241.03,691.491 1242.38,848.137 1243.73,848.137 1245.08,721.329 1246.43,721.329 1247.79,689.834 1249.14,689.834 1250.49,727.37 1251.84,727.37 1253.19,744.068 1254.54,744.068 1255.9,754.572 1257.25,754.572 1258.6,754.333 1259.95,754.333 1261.3,621.004 1262.65,621.004 1264.01,752.788 1265.36,752.788 1266.71,698.632 1268.06,698.632 1269.41,764.007 1270.76,764.007 1272.12,671.315 1273.47,671.315 1274.82,705.897 1276.17,705.897 1277.52,664.345 1278.87,664.345 1280.23,728.122 1281.58,728.122 1282.93,776.888 1284.28,776.888 1285.63,819.342 1286.98,819.342 1288.34,735.765 1289.69,735.765 1291.04,764.208 1292.39,764.208 1293.74,678.892 1295.09,678.892 1296.45,767.21 1297.8,767.21 1299.15,698.123 1300.5,698.123 1301.85,810.827 1303.2,810.827 1304.56,803.946 1305.91,803.946 1307.26,800.753 1308.61,800.753 1309.96,689.816 1311.31,689.816 1312.67,690.473 1314.02,690.473 1315.37,794.731 1316.72,794.731 1318.07,763.897 1319.42,763.897 1320.78,755.57 1322.13,755.57 1323.48,773.128 1324.83,773.128 1326.18,712.855 1327.53,712.855 1328.89,720.878 1330.24,720.878 1331.59,686.29 1332.94,686.29 1334.29,791.856 1335.64,791.856 1337,731.301 1338.35,731.301 1339.7,682.971 1341.05,682.971 1342.4,680.091 1343.75,680.091 1345.11,692.91 1346.46,692.91 1347.81,750.869 1349.16,750.869 1350.51,784.569 1351.86,784.569 1353.22,716.123 1354.57,716.123 1355.92,759.254 1357.27,759.254 1358.62,749.818 1359.97,749.818 1361.33,687.167 1362.68,687.167 1364.03,784.782 1365.38,784.782 1366.73,737.969 1368.08,737.969 1369.44,712.677 1370.79,712.677 1372.14,771.136 1373.49,771.136 1374.84,785.854 1376.19,785.854 1377.55,764.655 1378.9,764.655 1380.25,774.885 1381.6,774.885 1382.95,743.867 1384.3,743.867 1385.66,746.033 1387.01,746.033 1388.36,802.767 1389.71,802.767 1391.06,831.057 1392.41,831.057 1393.77,642.423 1395.12,642.423 1396.47,791.312 1397.82,791.312 1399.17,663.496 1400.52,663.496 1401.88,802.835 1403.23,802.835 1404.58,791.627 1405.93,791.627 1407.28,720.521 1408.63,720.521 1409.99,784.944 1411.34,784.944 1412.69,711.841 1414.04,711.841 1415.39,831.004 1416.74,831.004 1418.1,669.192 1419.45,669.192 1420.8,710.98 1422.15,710.98 1423.5,722.065 1424.85,722.065 1426.21,724.597 1427.56,724.597 1428.91,742.811 1430.26,742.811 1431.61,686.876 1432.96,686.876 1434.32,749.281 " />
</g>

<g fill="none" stroke="#000000" stroke-opacity="1" stroke-width="1" stroke-linecap="square" stroke-linejoin="bevel" transform="matrix(0.6,0,0,0.6,0,0)"
font-family="MS Shell Dlg 2" font-size="7.8" font-weight="400" font-style="normal" 
>
</g>

<g fill="none" stroke="#000000" stroke-opacity="1" stroke-width="1" stroke-linecap="square" stroke-linejoin="bevel" transform="matrix(0.6,0,0,0.6,0,0)"
font-family="MS Shell Dlg 2" font-size="7.8" font-weight="400" font-style="normal" 
>
</g>

<g fill="none" stroke="#000000" stroke-opacity="1" stroke-width="1" stroke-linecap="square" stroke-linejoin="bevel" transform="matrix(0.6,0,0,0.6,0,0)"
font-family="MS Shell Dlg 2" font-size="7.8" font-weight="400" font-style="normal" 
>
</g>

<g fill="none" stroke="none" transform="matrix(0.6,0,0,0.6,0,0)"
font-family="MS Shell Dlg 2" font-size="7.8" font-weight="400" font-style="normal" 
>
<rect x="1291" y="859" width="154" height="24"/>
</g>

<g fill="none" stroke="#000000" stroke-opacity="1" stroke-width="1" stroke-linecap="square" stroke-linejoin="bevel" transform="matrix(0.6,0,0,0.6,0,0)"
font-family="MS Shell Dlg 2" font-size="7.8" font-weight="400" font-style="normal" 
>
</g>

<g fill="none" stroke="#000000" stroke-opacity="1" stroke-width="1" stroke-linecap="square" stroke-linejoin="bevel" transform="matrix(0.6,0,0,0.6,0,0)"
font-family="MS Shell Dlg 2" font-size="7.8" font-weight="400" font-style="normal" 
>
</g>

<g fill="none" stroke="#000000" stroke-opacity="1" stroke-width="1" stroke-linecap="square" stroke-linejoin="bevel" transform="matrix(0.6,0,0,0.6,777,520.2)"
font-family="MS Shell Dlg 2" font-size="7.8" font-weight="400" font-style="normal" 
>
</g>

<g fill="#ff0056" fill-opacity="1" stroke="none" transform="matrix(0.6,0,0,0.6,0,0)"
font-family="MS Shell Dlg 2" font-size="7.8" font-weight="400" font-style="normal" 
>
<path vector-effect="none" fill-rule="evenodd" d="M1295,867 L1303,867 L1303,875 L1295,875 L1295,867"/>
</g>

<g fill="none" stroke="#000000" stroke-opacity="1" stroke-width="1" stroke-linecap="square" stroke-linejoin="bevel" transform="matrix(0.6,0,0,0.6,777,520.2)"
font-family="MS Shell Dlg 2" font-size="7.8" font-weight="400" font-style="normal" 
>
</g>

<g fill="none" stroke="#000000" stroke-opacity="1" stroke-width="1" stroke-linecap="square" stroke-linejoin="bevel" transform="matrix(0.6,0,0,0.6,0,0)"
font-family="MS Shell Dlg 2" font-size="7.8" font-weight="400" font-style="normal" 
>
</g>

<g fill="none" stroke="#000000" stroke-opacity="1" stroke-width="1" stroke-linecap="square" stroke-linejoin="bevel" transform="matrix(0.6,0,0,0.6,0,0)"
font-family="MS Shell Dlg 2" font-size="13" font-weight="400" font-style="normal" 
>
</g>

<g fill="none" stroke="#000000" stroke-opacity="1" stroke-width="1" stroke-linecap="square" stroke-linejoin="bevel" transform="matrix(0.6,0,0,0.6,0,0)"
font-family="MS Shell Dlg 2" font-size="13" font-weight="400" font-style="normal" 
>
<text fill="#000000" fill-opacity="1" stroke="none" xml:space="preserve" x="1307" y="876" font-family="MS Shell Dlg 2" font-size="13" font-weight="400" font-style="normal" 
 >Channel 1</text>
</g>

<g fill="none" stroke="#000000" stroke-opacity="1" stroke-width="1" stroke-linecap="square" stroke-linejoin="bevel" transform="matrix(0.6,0,0,0.6,0,0)"
font-family="MS Shell Dlg 2" font-size="7.8" font-weight="400" font-style="normal" 
>
</g>

<g fill="none" stroke="#000000" stroke-opacity="1" stroke-width="1" stroke-linecap="square" stroke-linejoin="bevel" transform="matrix(0.6,0,0,0.6,0,0)"
font-family="MS Shell Dlg 2" font-size="7.8" font-weight="400" font-style="normal" 
>
</g>

<g fill="none" stroke="#000000" stroke-opacity="1" stroke-width="1" stroke-linecap="square" stroke-linejoin="bevel" transform="matrix(0.6,0,0,0.6,0,0)"
font-family="MS Shell Dlg 2" font-size="7.8" font-weight="400" font-style="normal" 
>
</g>

<g fill="none" stroke="#000000" stroke-opacity="1" stroke-width="1" stroke-linecap="square" stroke-linejoin="bevel" transform="matrix(0.6,0,0,0.6,0,0)"
font-family="MS Shell Dlg 2" font-size="7.8" font-weight="400" font-style="normal" 
>
</g>

<g fill="none" stroke="#000000" stroke-opacity="1" stroke-width="1" stroke-linecap="square" stroke-linejoin="bevel" transform="matrix(0.6,0,0,0.6,0,0)"
font-family="MS Shell Dlg 2" font-size="7.8" font-weight="400" font-style="normal" 
>
</g>

<g fill="none" stroke="#000000" stroke-opacity="1" stroke-width="1" stroke-linecap="square" stroke-linejoin="bevel" transform="matrix(0.6,0,0,0.6,0,0)"
font-family="MS Shell Dlg 2" font-size="7.8" font-weight="400" font-style="normal" 
>
</g>

<g fill="none" stroke="#000000" stroke-opacity="1" stroke-width="1" stroke-linecap="square" stroke-linejoin="bevel" transform="matrix(0.6,0,0,0.6,823.2,520.2)"
font-family="MS Shell Dlg 2" font-size="7.8" font-weight="400" font-style="normal" 
>
</g>

<g fill="#7e2dd2" fill-opacity="1" stroke="none" transform="matrix(0.6,0,0,0.6,0,0)"
font-family="MS Shell Dlg 2" font-size="7.8" font-weight="400" font-style="normal" 
>
<path vector-effect="none" fill-rule="evenodd" d="M1372,867 L1380,867 L1380,875 L1372,875 L1372,867"/>
</g>

<g fill="none" stroke="#000000" stroke-opacity="1" stroke-width="1" stroke-linecap="square" stroke-linejoin="bevel" transform="matrix(0.6,0,0,0.6,823.2,520.2)"
font-family="MS Shell Dlg 2" font-size="7.8" font-weight="400" font-style="normal" 
>
</g>

<g fill="none" stroke="#000000" stroke-opacity="1" stroke-width="1" stroke-linecap="square" stroke-linejoin="bevel" transform="matrix(0.6,0,0,0.6,0,0)"
font-family="MS Shell Dlg 2" font-size="7.8" font-weight="400" font-style="normal" 
>
</g>

<g fill="none" stroke="#000000" stroke-opacity="1" stroke-width="1" stroke-linecap="square" stroke-linejoin="bevel" transform="matrix(0.6,0,0,0.6,0,0)"
font-family="MS Shell Dlg 2" font-size="13" font-weight="400" font-style="normal" 
>
</g>

<g fill="none" stroke="#000000" stroke-opacity="1" stroke-width="1" stroke-linecap="square" stroke-linejoin="bevel" transform="matrix(0.6,0,0,0.6,0,0)"
font-family="MS Shell Dlg 2" font-size="13" font-weight="400" font-style="normal" 
>
<text fill="#000000" fill-opacity="1" stroke="none" xml:space="preserve" x="1384" y="876" font-family="MS Shell Dlg 2" font-size="13" font-weight="400" font-style="normal" 
 >Channel 2</text>
</g>

<g fill="none" stroke="#000000" stroke-opacity="1" stroke-width="1" stroke-linecap="square" stroke-linejoin="bevel" transform="matrix(0.6,0,0,0.6,0,0)"
font-family="MS Shell Dlg 2" font-size="7.8" font-weight="400" font-style="normal" 
>
</g>

<g fill="none" stroke="#000000" stroke-opacity="1" stroke-width="1" stroke-linecap="square" stroke-linejoin="bevel" transform="matrix(0.6,0,0,0.6,0,0)"
font-family="MS Shell Dlg 2" font-size="7.8" font-weight="400" font-style="normal" 
>
</g>

<g fill="none" stroke="#000000" stroke-opacity="1" stroke-width="1" stroke-linecap="square" stroke-linejoin="bevel" transform="matrix(0.6,0,0,0.6,0,0)"
font-family="MS Shell Dlg 2" font-size="7.8" font-weight="400" font-style="normal" 
>
</g>

<g fill="none" stroke="#000000" stroke-opacity="1" stroke-width="1" stroke-linecap="square" stroke-linejoin="bevel" transform="matrix(0.6,0,0,0.6,0,0)"
font-family="MS Shell Dlg 2" font-size="7.8" font-weight="400" font-style="normal" 
>
</g>

<g fill="none" stroke="#000000" stroke-opacity="1" stroke-width="1" stroke-linecap="square" stroke-linejoin="bevel" transform="matrix(0.6,0,0,0.6,0,0)"
font-family="MS Shell Dlg 2" font-size="7.8" font-weight="400" font-style="normal" 
>
</g>

<g fill="none" stroke="#000000" stroke-opacity="1" stroke-width="1" stroke-linecap="square" stroke-linejoin="bevel" transform="matrix(0.6,0,0,0.6,0,0)"
font-family="MS Shell Dlg 2" font-size="7.8" font-weight="400" font-style="normal" 
>
</g>

<g fill="none" stroke="#000000" stroke-opacity="1" stroke-width="1" stroke-linecap="square" stroke-linejoin="bevel" transform="matrix(0.6,0,0,0.6,0,0)"
font-family="MS Shell Dlg 2" font-size="7.8" font-weight="400" font-style="normal" 
>
</g>

<g fill="#a0a0a0" fill-opacity="1" stroke="none" transform="matrix(0.6,0,0,0.6,0,0)"
font-family="MS Shell Dlg 2" font-size="7.8" font-weight="400" font-style="normal" 
>
<path vector-effect="none" fill-rule="evenodd" d="M78,893.333 L78,0 L1455.67,0 L1454.67,1 L79,1 L79,892.333"/>
</g>

<g fill="#ffffff" fill-opacity="1" stroke="none" transform="matrix(0.6,0,0,0.6,0,0)"
font-family="MS Shell Dlg 2" font-size="7.8" font-weight="400" font-style="normal" 
>
<path vector-effect="none" fill-rule="evenodd" d="M78,893.333 L1455.67,893.333 L1455.67,0 L1454.67,1 L1454.67,892.333 L79,892.333"/>
</g>

<g fill="none" stroke="#000000" stroke-opacity="1" stroke-width="1" stroke-linecap="square" stroke-linejoin="bevel" transform="matrix(0.6,0,0,0.6,0,0)"
font-family="MS Shell Dlg 2" font-size="7.8" font-weight="400" font-style="normal" 
>
</g>

<g fill="none" stroke="#000000" stroke-opacity="1" stroke-width="1" stroke-linecap="square" stroke-linejoin="bevel" transform="matrix(0.6,0,0,0.6,0,0)"
font-family="MS Shell Dlg 2" font-size="7.8" font-weight="400" font-style="normal" 
>
</g>

<g fill="none" stroke="#000000" stroke-opacity="1" stroke-width="1" stroke-linecap="square" stroke-linejoin="bevel" transform="matrix(0,-0.6,0.6,0,0,536.6)"
font-family="MS Shell Dlg 2" font-size="10" font-weight="400" font-style="normal" 
>
</g>

<g fill="none" stroke="#000000" stroke-opacity="1" stroke-width="1" stroke-linecap="square" stroke-linejoin="bevel" transform="matrix(0,-0.6,0.6,0,0,536.6)"
font-family="MS Shell Dlg 2" font-size="12" font-weight="700" font-style="normal" 
>
</g>

<g fill="none" stroke="#000000" stroke-opacity="1" stroke-width="1" stroke-linecap="square" stroke-linejoin="bevel" transform="matrix(0,-0.6,0.6,0,0,536.6)"
font-family="MS Shell Dlg 2" font-size="12" font-weight="700" font-style="normal" 
>
</g>

<g fill="none" stroke="#000000" stroke-opacity="1" stroke-width="1" stroke-linecap="square" stroke-linejoin="bevel" transform="matrix(0,-0.6,0.6,0,0,536.6)"
font-family="MS Shell Dlg 2" font-size="10" font-weight="400" font-style="normal" 
>
</g>

<g fill="none" stroke="#000000" stroke-opacity="1" stroke-width="1" stroke-linecap="square" stroke-linejoin="bevel" transform="matrix(0.6,0,0,0.6,0,0)"
font-family="MS Shell Dlg 2" font-size="7.8" font-weight="400" font-style="normal" 
>
</g>

<g fill="none" stroke="#000000" stroke-opacity="1" stroke-width="1" stroke-linecap="square" stroke-linejoin="bevel" transform="matrix(0.6,0,0,0.6,0,0)"
font-family="MS Shell Dlg 2" font-size="10" font-weight="400" font-style="normal" 
>
</g>

<g fill="none" stroke="#000000" stroke-opacity="1" stroke-width="1" stroke-linecap="square" stroke-linejoin="bevel" transform="matrix(0.6,0,0,0.6,0,0)"
font-family="MS Shell Dlg 2" font-size="10" font-weight="400" font-style="normal" 
>
</g>

<g fill="none" stroke="#000000" stroke-opacity="1" stroke-width="1" stroke-linecap="square" stroke-linejoin="bevel" transform="matrix(0.6,0,0,0.6,0,0)"
font-family="MS Shell Dlg 2" font-size="10" font-weight="400" font-style="normal" 
>
</g>

<g fill="none" stroke="#000000" stroke-opacity="1" stroke-width="1" stroke-linecap="square" stroke-linejoin="bevel" transform="matrix(0.6,0,0,0.6,0,528.5)"
font-family="MS Shell Dlg 2" font-size="10" font-weight="400" font-style="normal" 
>
</g>

<g fill="none" stroke="#000000" stroke-opacity="1" stroke-width="1" stroke-linecap="square" stroke-linejoin="bevel" transform="matrix(0.6,0,0,0.6,0,528.5)"
font-family="MS Shell Dlg 2" font-size="17" font-weight="400" font-style="normal" 
>
</g>

<g fill="none" stroke="#000000" stroke-opacity="1" stroke-width="1" stroke-linecap="square" stroke-linejoin="bevel" transform="matrix(0.6,0,0,0.6,0,528.5)"
font-family="MS Shell Dlg 2" font-size="17" font-weight="400" font-style="normal" 
>
<text fill="#000000" fill-opacity="1" stroke="none" xml:space="preserve" x="0" y="13" font-family="MS Shell Dlg 2" font-size="17" font-weight="400" font-style="normal" 
 >8,1e+06</text>
</g>

<g fill="none" stroke="#000000" stroke-opacity="1" stroke-width="1" stroke-linecap="square" stroke-linejoin="bevel" transform="matrix(0.6,0,0,0.6,0,528.5)"
font-family="MS Shell Dlg 2" font-size="10" font-weight="400" font-style="normal" 
>
</g>

<g fill="none" stroke="#000000" stroke-opacity="1" stroke-width="1" stroke-linecap="square" stroke-linejoin="bevel" transform="matrix(0.6,0,0,0.6,0,528.5)"
font-family="MS Shell Dlg 2" font-size="10" font-weight="400" font-style="normal" 
>
</g>

<g fill="none" stroke="#000000" stroke-opacity="1" stroke-width="1" stroke-linecap="square" stroke-linejoin="bevel" transform="matrix(0.6,0,0,0.6,0,0)"
font-family="MS Shell Dlg 2" font-size="10" font-weight="400" font-style="normal" 
>
</g>

<g fill="none" stroke="#000000" stroke-opacity="1" stroke-width="1" stroke-linecap="square" stroke-linejoin="bevel" transform="matrix(0.6,0,0,0.6,0,422.86)"
font-family="MS Shell Dlg 2" font-size="10" font-weight="400" font-style="normal" 
>
</g>

<g fill="none" stroke="#000000" stroke-opacity="1" stroke-width="1" stroke-linecap="square" stroke-linejoin="bevel" transform="matrix(0.6,0,0,0.6,0,422.86)"
font-family="MS Shell Dlg 2" font-size="17" font-weight="400" font-style="normal" 
>
</g>

<g fill="none" stroke="#000000" stroke-opacity="1" stroke-width="1" stroke-linecap="square" stroke-linejoin="bevel" transform="matrix(0.6,0,0,0.6,0,422.86)"
font-family="MS Shell Dlg 2" font-size="17" font-weight="400" font-style="normal" 
>
<text fill="#000000" fill-opacity="1" stroke="none" xml:space="preserve" x="0" y="13" font-family="MS Shell Dlg 2" font-size="17" font-weight="400" font-style="normal" 
 >8,2e+06</text>
</g>

<g fill="none" stroke="#000000" stroke-opacity="1" stroke-width="1" stroke-linecap="square" stroke-linejoin="bevel" transform="matrix(0.6,0,0,0.6,0,422.86)"
font-family="MS Shell Dlg 2" font-size="10" font-weight="400" font-style="normal" 
>
</g>

<g fill="none" stroke="#000000" stroke-opacity="1" stroke-width="1" stroke-linecap="square" stroke-linejoin="bevel" transform="matrix(0.6,0,0,0.6,0,422.86)"
font-family="MS Shell Dlg 2" font-size="10" font-weight="400" font-style="normal" 
>
</g>

<g fill="none" stroke="#000000" stroke-opacity="1" stroke-width="1" stroke-linecap="square" stroke-linejoin="bevel" transform="matrix(0.6,0,0,0.6,0,0)"
font-family="MS Shell Dlg 2" font-size="10" font-weight="400" font-style="normal" 
>
</g>

<g fill="none" stroke="#000000" stroke-opacity="1" stroke-width="1" stroke-linecap="square" stroke-linejoin="bevel" transform="matrix(0.6,0,0,0.6,0,317.22)"
font-family="MS Shell Dlg 2" font-size="10" font-weight="400" font-style="normal" 
>
</g>

<g fill="none" stroke="#000000" stroke-opacity="1" stroke-width="1" stroke-linecap="square" stroke-linejoin="bevel" transform="matrix(0.6,0,0,0.6,0,317.22)"
font-family="MS Shell Dlg 2" font-size="17" font-weight="400" font-style="normal" 
>
</g>

<g fill="none" stroke="#000000" stroke-opacity="1" stroke-width="1" stroke-linecap="square" stroke-linejoin="bevel" transform="matrix(0.6,0,0,0.6,0,317.22)"
font-family="MS Shell Dlg 2" font-size="17" font-weight="400" font-style="normal" 
>
<text fill="#000000" fill-opacity="1" stroke="none" xml:space="preserve" x="0" y="13" font-family="MS Shell Dlg 2" font-size="17" font-weight="400" font-style="normal" 
 >8,3e+06</text>
</g>

<g fill="none" stroke="#000000" stroke-opacity="1" stroke-width="1" stroke-linecap="square" stroke-linejoin="bevel" transform="matrix(0.6,0,0,0.6,0,317.22)"
font-family="MS Shell Dlg 2" font-size="10" font-weight="400" font-style="normal" 
>
</g>

<g fill="none" stroke="#000000" stroke-opacity="1" stroke-width="1" stroke-linecap="square" stroke-linejoin="bevel" transform="matrix(0.6,0,0,0.6,0,317.22)"
font-family="MS Shell Dlg 2" font-size="10" font-weight="400" font-style="normal" 
>
</g>

<g fill="none" stroke="#000000" stroke-opacity="1" stroke-width="1" stroke-linecap="square" stroke-linejoin="bevel" transform="matrix(0.6,0,0,0.6,0,0)"
font-family="MS Shell Dlg 2" font-size="10" font-weight="400" font-style="normal" 
>
</g>

<g fill="none" stroke="#000000" stroke-opacity="1" stroke-width="1" stroke-linecap="square" stroke-linejoin="bevel" transform="matrix(0.6,0,0,0.6,0,211.58)"
font-family="MS Shell Dlg 2" font-size="10" font-weight="400" font-style="normal" 
>
</g>

<g fill="none" stroke="#000000" stroke-opacity="1" stroke-width="1" stroke-linecap="square" stroke-linejoin="bevel" transform="matrix(0.6,0,0,0.6,0,211.58)"
font-family="MS Shell Dlg 2" font-size="17" font-weight="400" font-style="normal" 
>
</g>

<g fill="none" stroke="#000000" stroke-opacity="1" stroke-width="1" stroke-linecap="square" stroke-linejoin="bevel" transform="matrix(0.6,0,0,0.6,0,211.58)"
font-family="MS Shell Dlg 2" font-size="17" font-weight="400" font-style="normal" 
>
<text fill="#000000" fill-opacity="1" stroke="none" xml:space="preserve" x="0" y="13" font-family="MS Shell Dlg 2" font-size="17" font-weight="400" font-style="normal" 
 >8,4e+06</text>
</g>

<g fill="none" stroke="#000000" stroke-opacity="1" stroke-width="1" stroke-linecap="square" stroke-linejoin="bevel" transform="matrix(0.6,0,0,0.6,0,211.58)"
font-family="MS Shell Dlg 2" font-size="10" font-weight="400" font-style="normal" 
>
</g>

<g fill="none" stroke="#000000" stroke-opacity="1" stroke-width="1" stroke-linecap="square" stroke-linejoin="bevel" transform="matrix(0.6,0,0,0.6,0,211.58)"
font-family="MS Shell Dlg 2" font-size="10" font-weight="400" font-style="normal" 
>
</g>

<g fill="none" stroke="#000000" stroke-opacity="1" stroke-width="1" stroke-linecap="square" stroke-linejoin="bevel" transform="matrix(0.6,0,0,0.6,0,0)"
font-family="MS Shell Dlg 2" font-size="10" font-weight="400" font-style="normal" 
>
</g>

<g fill="none" stroke="#000000" stroke-opacity="1" stroke-width="1" stroke-linecap="square" stroke-linejoin="bevel" transform="matrix(0.6,0,0,0.6,0,105.94)"
font-family="MS Shell Dlg 2" font-size="10" font-weight="400" font-style="normal" 
>
</g>

<g fill="none" stroke="#000000" stroke-opacity="1" stroke-width="1" stroke-linecap="square" stroke-linejoin="bevel" transform="matrix(0.6,0,0,0.6,0,105.94)"
font-family="MS Shell Dlg 2" font-size="17" font-weight="400" font-style="normal" 
>
</g>

<g fill="none" stroke="#000000" stroke-opacity="1" stroke-width="1" stroke-linecap="square" stroke-linejoin="bevel" transform="matrix(0.6,0,0,0.6,0,105.94)"
font-family="MS Shell Dlg 2" font-size="17" font-weight="400" font-style="normal" 
>
<text fill="#000000" fill-opacity="1" stroke="none" xml:space="preserve" x="0" y="13" font-family="MS Shell Dlg 2" font-size="17" font-weight="400" font-style="normal" 
 >8,5e+06</text>
</g>

<g fill="none" stroke="#000000" stroke-opacity="1" stroke-width="1" stroke-linecap="square" stroke-linejoin="bevel" transform="matrix(0.6,0,0,0.6,0,105.94)"
font-family="MS Shell Dlg 2" font-size="10" font-weight="400" font-style="normal" 
>
</g>

<g fill="none" stroke="#000000" stroke-opacity="1" stroke-width="1" stroke-linecap="square" stroke-linejoin="bevel" transform="matrix(0.6,0,0,0.6,0,105.94)"
font-family="MS Shell Dlg 2" font-size="10" font-weight="400" font-style="normal" 
>
</g>

<g fill="none" stroke="#000000" stroke-opacity="1" stroke-width="1" stroke-linecap="square" stroke-linejoin="bevel" transform="matrix(0.6,0,0,0.6,0,0)"
font-family="MS Shell Dlg 2" font-size="10" font-weight="400" font-style="normal" 
>
</g>

<g fill="none" stroke="#000000" stroke-opacity="1" stroke-width="1" stroke-linecap="square" stroke-linejoin="bevel" transform="matrix(0.6,0,0,0.6,0,0.3)"
font-family="MS Shell Dlg 2" font-size="10" font-weight="400" font-style="normal" 
>
</g>

<g fill="none" stroke="#000000" stroke-opacity="1" stroke-width="1" stroke-linecap="square" stroke-linejoin="bevel" transform="matrix(0.6,0,0,0.6,0,0.3)"
font-family="MS Shell Dlg 2" font-size="17" font-weight="400" font-style="normal" 
>
</g>

<g fill="none" stroke="#000000" stroke-opacity="1" stroke-width="1" stroke-linecap="square" stroke-linejoin="bevel" transform="matrix(0.6,0,0,0.6,0,0.3)"
font-family="MS Shell Dlg 2" font-size="17" font-weight="400" font-style="normal" 
>
<text fill="#000000" fill-opacity="1" stroke="none" xml:space="preserve" x="0" y="13" font-family="MS Shell Dlg 2" font-size="17" font-weight="400" font-style="normal" 
 >8,6e+06</text>
</g>

<g fill="none" stroke="#000000" stroke-opacity="1" stroke-width="1" stroke-linecap="square" stroke-linejoin="bevel" transform="matrix(0.6,0,0,0.6,0,0.3)"
font-family="MS Shell Dlg 2" font-size="10" font-weight="400" font-style="normal" 
>
</g>

<g fill="none" stroke="#000000" stroke-opacity="1" stroke-width="1" stroke-linecap="square" stroke-linejoin="bevel" transform="matrix(0.6,0,0,0.6,0,0.3)"
font-family="MS Shell Dlg 2" font-size="10" font-weight="400" font-style="normal" 
>
</g>

<g fill="none" stroke="#000000" stroke-opacity="1" stroke-width="1" stroke-linecap="square" stroke-linejoin="bevel" transform="matrix(0.6,0,0,0.6,0,0)"
font-family="MS Shell Dlg 2" font-size="10" font-weight="400" font-style="normal" 
>
</g>

<g fill="none" stroke="#000000" stroke-opacity="1" stroke-width="1" stroke-linecap="square" stroke-linejoin="bevel" transform="matrix(0.6,0,0,0.6,0,0)"
font-family="MS Shell Dlg 2" font-size="10" font-weight="400" font-style="normal" 
>
</g>

<g fill="none" stroke="#000000" stroke-opacity="1" stroke-width="1" stroke-linecap="butt" stroke-linejoin="bevel" transform="matrix(0.6,0,0,0.6,0,0)"
font-family="MS Shell Dlg 2" font-size="10" font-weight="400" font-style="normal" 
>
<polyline fill="none" vector-effect="non-scaling-stroke" points="75,852.12 71,852.12 " />
<polyline fill="none" vector-effect="non-scaling-stroke" points="75,816.907 71,816.907 " />
<polyline fill="none" vector-effect="non-scaling-stroke" points="75,781.693 71,781.693 " />
<polyline fill="none" vector-effect="non-scaling-stroke" points="75,746.48 71,746.48 " />
<polyline fill="none" vector-effect="non-scaling-stroke" points="75,676.053 71,676.053 " />
<polyline fill="none" vector-effect="non-scaling-stroke" points="75,640.84 71,640.84 " />
<polyline fill="none" vector-effect="non-scaling-stroke" points="75,605.627 71,605.627 " />
<polyline fill="none" vector-effect="non-scaling-stroke" points="75,570.413 71,570.413 " />
<polyline fill="none" vector-effect="non-scaling-stroke" points="75,499.987 71,499.987 " />
<polyline fill="none" vector-effect="non-scaling-stroke" points="75,464.773 71,464.773 " />
<polyline fill="none" vector-effect="non-scaling-stroke" points="75,429.56 71,429.56 " />
<polyline fill="none" vector-effect="non-scaling-stroke" points="75,394.347 71,394.347 " />
<polyline fill="none" vector-effect="non-scaling-stroke" points="75,323.92 71,323.92 " />
<polyline fill="none" vector-effect="non-scaling-stroke" points="75,288.707 71,288.707 " />
<polyline fill="none" vector-effect="non-scaling-stroke" points="75,253.493 71,253.493 " />
<polyline fill="none" vector-effect="non-scaling-stroke" points="75,218.28 71,218.28 " />
<polyline fill="none" vector-effect="non-scaling-stroke" points="75,147.853 71,147.853 " />
<polyline fill="none" vector-effect="non-scaling-stroke" points="75,112.64 71,112.64 " />
<polyline fill="none" vector-effect="non-scaling-stroke" points="75,77.4267 71,77.4267 " />
<polyline fill="none" vector-effect="non-scaling-stroke" points="75,42.2133 71,42.2133 " />
<polyline fill="none" vector-effect="non-scaling-stroke" points="75,887.333 67,887.333 " />
<polyline fill="none" vector-effect="non-scaling-stroke" points="75,711.267 67,711.267 " />
<polyline fill="none" vector-effect="non-scaling-stroke" points="75,535.2 67,535.2 " />
<polyline fill="none" vector-effect="non-scaling-stroke" points="75,359.133 67,359.133 " />
<polyline fill="none" vector-effect="non-scaling-stroke" points="75,183.067 67,183.067 " />
<polyline fill="none" vector-effect="non-scaling-stroke" points="75,7 67,7 " />
</g>

<g fill="none" stroke="#000000" stroke-opacity="1" stroke-width="1" stroke-linecap="square" stroke-linejoin="bevel" transform="matrix(0.6,0,0,0.6,0,0)"
font-family="MS Shell Dlg 2" font-size="10" font-weight="400" font-style="normal" 
>
</g>

<g fill="none" stroke="#000000" stroke-opacity="1" stroke-width="1" stroke-linecap="butt" stroke-linejoin="bevel" transform="matrix(0.6,0,0,0.6,0,0)"
font-family="MS Shell Dlg 2" font-size="10" font-weight="400" font-style="normal" 
>
<polyline fill="none" vector-effect="non-scaling-stroke" points="75,7 75,887.333 " />
</g>

<g fill="none" stroke="#000000" stroke-opacity="1" stroke-width="1" stroke-linecap="square" stroke-linejoin="bevel" transform="matrix(0.6,0,0,0.6,0,0)"
font-family="MS Shell Dlg 2" font-size="10" font-weight="400" font-style="normal" 
>
</g>

<g fill="none" stroke="#000000" stroke-opacity="1" stroke-width="1" stroke-linecap="square" stroke-linejoin="bevel" transform="matrix(0.6,0,0,0.6,0,0)"
font-family="MS Shell Dlg 2" font-size="10" font-weight="400" font-style="normal" 
>
</g>

<g fill="none" stroke="#000000" stroke-opacity="1" stroke-width="1" stroke-linecap="square" stroke-linejoin="bevel" transform="matrix(0.6,0,0,0.6,0,0)"
font-family="MS Shell Dlg 2" font-size="7.8" font-weight="400" font-style="normal" 
>
</g>

<g fill="none" stroke="#000000" stroke-opacity="1" stroke-width="1" stroke-linecap="square" stroke-linejoin="bevel" transform="matrix(0.6,0,0,0.6,47.4,554.6)"
font-family="MS Shell Dlg 2" font-size="10" font-weight="400" font-style="normal" 
>
</g>

<g fill="none" stroke="#000000" stroke-opacity="1" stroke-width="1" stroke-linecap="square" stroke-linejoin="bevel" transform="matrix(0.6,0,0,0.6,47.4,554.6)"
font-family="MS Shell Dlg 2" font-size="12" font-weight="700" font-style="normal" 
>
</g>

<g fill="none" stroke="#000000" stroke-opacity="1" stroke-width="1" stroke-linecap="square" stroke-linejoin="bevel" transform="matrix(0.6,0,0,0.6,47.4,554.6)"
font-family="MS Shell Dlg 2" font-size="12" font-weight="700" font-style="normal" 
>
</g>

<g fill="none" stroke="#000000" stroke-opacity="1" stroke-width="1" stroke-linecap="square" stroke-linejoin="bevel" transform="matrix(0.6,0,0,0.6,47.4,554.6)"
font-family="MS Shell Dlg 2" font-size="10" font-weight="400" font-style="normal" 
>
</g>

<g fill="none" stroke="#000000" stroke-opacity="1" stroke-width="1" stroke-linecap="square" stroke-linejoin="bevel" transform="matrix(0.6,0,0,0.6,0,0)"
font-family="MS Shell Dlg 2" font-size="7.8" font-weight="400" font-style="normal" 
>
</g>

<g fill="none" stroke="#000000" stroke-opacity="1" stroke-width="1" stroke-linecap="square" stroke-linejoin="bevel" transform="matrix(0.6,0,0,0.6,0,0)"
font-family="MS Shell Dlg 2" font-size="10" font-weight="400" font-style="normal" 
>
</g>

<g fill="none" stroke="#000000" stroke-opacity="1" stroke-width="1" stroke-linecap="square" stroke-linejoin="bevel" transform="matrix(0.6,0,0,0.6,0,0)"
font-family="MS Shell Dlg 2" font-size="10" font-weight="400" font-style="normal" 
>
</g>

<g fill="none" stroke="#000000" stroke-opacity="1" stroke-width="1" stroke-linecap="square" stroke-linejoin="bevel" transform="matrix(0.6,0,0,0.6,0,0)"
font-family="MS Shell Dlg 2" font-size="10" font-weight="400" font-style="normal" 
>
</g>

<g fill="none" stroke="#000000" stroke-opacity="1" stroke-width="1" stroke-linecap="square" stroke-linejoin="bevel" transform="matrix(0.6,0,0,0.6,47.7,545.6)"
font-family="MS Shell Dlg 2" font-size="10" font-weight="400" font-style="normal" 
>
</g>

<g fill="none" stroke="#000000" stroke-opacity="1" stroke-width="1" stroke-linecap="square" stroke-linejoin="bevel" transform="matrix(0.6,0,0,0.6,47.7,545.6)"
font-family="MS Shell Dlg 2" font-size="17" font-weight="400" font-style="normal" 
>
</g>

<g fill="none" stroke="#000000" stroke-opacity="1" stroke-width="1" stroke-linecap="square" stroke-linejoin="bevel" transform="matrix(0.6,0,0,0.6,47.7,545.6)"
font-family="MS Shell Dlg 2" font-size="17" font-weight="400" font-style="normal" 
>
<text fill="#000000" fill-opacity="1" stroke="none" xml:space="preserve" x="0" y="13" font-family="MS Shell Dlg 2" font-size="17" font-weight="400" font-style="normal" 
 >0</text>
</g>

<g fill="none" stroke="#000000" stroke-opacity="1" stroke-width="1" stroke-linecap="square" stroke-linejoin="bevel" transform="matrix(0.6,0,0,0.6,47.7,545.6)"
font-family="MS Shell Dlg 2" font-size="10" font-weight="400" font-style="normal" 
>
</g>

<g fill="none" stroke="#000000" stroke-opacity="1" stroke-width="1" stroke-linecap="square" stroke-linejoin="bevel" transform="matrix(0.6,0,0,0.6,47.7,545.6)"
font-family="MS Shell Dlg 2" font-size="10" font-weight="400" font-style="normal" 
>
</g>

<g fill="none" stroke="#000000" stroke-opacity="1" stroke-width="1" stroke-linecap="square" stroke-linejoin="bevel" transform="matrix(0.6,0,0,0.6,0,0)"
font-family="MS Shell Dlg 2" font-size="10" font-weight="400" font-style="normal" 
>
</g>

<g fill="none" stroke="#000000" stroke-opacity="1" stroke-width="1" stroke-linecap="square" stroke-linejoin="bevel" transform="matrix(0.6,0,0,0.6,204.5,545.6)"
font-family="MS Shell Dlg 2" font-size="10" font-weight="400" font-style="normal" 
>
</g>

<g fill="none" stroke="#000000" stroke-opacity="1" stroke-width="1" stroke-linecap="square" stroke-linejoin="bevel" transform="matrix(0.6,0,0,0.6,204.5,545.6)"
font-family="MS Shell Dlg 2" font-size="17" font-weight="400" font-style="normal" 
>
</g>

<g fill="none" stroke="#000000" stroke-opacity="1" stroke-width="1" stroke-linecap="square" stroke-linejoin="bevel" transform="matrix(0.6,0,0,0.6,204.5,545.6)"
font-family="MS Shell Dlg 2" font-size="17" font-weight="400" font-style="normal" 
>
<text fill="#000000" fill-opacity="1" stroke="none" xml:space="preserve" x="0" y="13" font-family="MS Shell Dlg 2" font-size="17" font-weight="400" font-style="normal" 
 >200</text>
</g>

<g fill="none" stroke="#000000" stroke-opacity="1" stroke-width="1" stroke-linecap="square" stroke-linejoin="bevel" transform="matrix(0.6,0,0,0.6,204.5,545.6)"
font-family="MS Shell Dlg 2" font-size="10" font-weight="400" font-style="normal" 
>
</g>

<g fill="none" stroke="#000000" stroke-opacity="1" stroke-width="1" stroke-linecap="square" stroke-linejoin="bevel" transform="matrix(0.6,0,0,0.6,204.5,545.6)"
font-family="MS Shell Dlg 2" font-size="10" font-weight="400" font-style="normal" 
>
</g>

<g fill="none" stroke="#000000" stroke-opacity="1" stroke-width="1" stroke-linecap="square" stroke-linejoin="bevel" transform="matrix(0.6,0,0,0.6,0,0)"
font-family="MS Shell Dlg 2" font-size="10" font-weight="400" font-style="normal" 
>
</g>

<g fill="none" stroke="#000000" stroke-opacity="1" stroke-width="1" stroke-linecap="square" stroke-linejoin="bevel" transform="matrix(0.6,0,0,0.6,366.7,545.6)"
font-family="MS Shell Dlg 2" font-size="10" font-weight="400" font-style="normal" 
>
</g>

<g fill="none" stroke="#000000" stroke-opacity="1" stroke-width="1" stroke-linecap="square" stroke-linejoin="bevel" transform="matrix(0.6,0,0,0.6,366.7,545.6)"
font-family="MS Shell Dlg 2" font-size="17" font-weight="400" font-style="normal" 
>
</g>

<g fill="none" stroke="#000000" stroke-opacity="1" stroke-width="1" stroke-linecap="square" stroke-linejoin="bevel" transform="matrix(0.6,0,0,0.6,366.7,545.6)"
font-family="MS Shell Dlg 2" font-size="17" font-weight="400" font-style="normal" 
>
<text fill="#000000" fill-opacity="1" stroke="none" xml:space="preserve" x="0" y="13" font-family="MS Shell Dlg 2" font-size="17" font-weight="400" font-style="normal" 
 >400</text>
</g>

<g fill="none" stroke="#000000" stroke-opacity="1" stroke-width="1" stroke-linecap="square" stroke-linejoin="bevel" transform="matrix(0.6,0,0,0.6,366.7,545.6)"
font-family="MS Shell Dlg 2" font-size="10" font-weight="400" font-style="normal" 
>
</g>

<g fill="none" stroke="#000000" stroke-opacity="1" stroke-width="1" stroke-linecap="square" stroke-linejoin="bevel" transform="matrix(0.6,0,0,0.6,366.7,545.6)"
font-family="MS Shell Dlg 2" font-size="10" font-weight="400" font-style="normal" 
>
</g>

<g fill="none" stroke="#000000" stroke-opacity="1" stroke-width="1" stroke-linecap="square" stroke-linejoin="bevel" transform="matrix(0.6,0,0,0.6,0,0)"
font-family="MS Shell Dlg 2" font-size="10" font-weight="400" font-style="normal" 
>
</g>

<g fill="none" stroke="#000000" stroke-opacity="1" stroke-width="1" stroke-linecap="square" stroke-linejoin="bevel" transform="matrix(0.6,0,0,0.6,528.9,545.6)"
font-family="MS Shell Dlg 2" font-size="10" font-weight="400" font-style="normal" 
>
</g>

<g fill="none" stroke="#000000" stroke-opacity="1" stroke-width="1" stroke-linecap="square" stroke-linejoin="bevel" transform="matrix(0.6,0,0,0.6,528.9,545.6)"
font-family="MS Shell Dlg 2" font-size="17" font-weight="400" font-style="normal" 
>
</g>

<g fill="none" stroke="#000000" stroke-opacity="1" stroke-width="1" stroke-linecap="square" stroke-linejoin="bevel" transform="matrix(0.6,0,0,0.6,528.9,545.6)"
font-family="MS Shell Dlg 2" font-size="17" font-weight="400" font-style="normal" 
>
<text fill="#000000" fill-opacity="1" stroke="none" xml:space="preserve" x="0" y="13" font-family="MS Shell Dlg 2" font-size="17" font-weight="400" font-style="normal" 
 >600</text>
</g>

<g fill="none" stroke="#000000" stroke-opacity="1" stroke-width="1" stroke-linecap="square" stroke-linejoin="bevel" transform="matrix(0.6,0,0,0.6,528.9,545.6)"
font-family="MS Shell Dlg 2" font-size="10" font-weight="400" font-style="normal" 
>
</g>

<g fill="none" stroke="#000000" stroke-opacity="1" stroke-width="1" stroke-linecap="square" stroke-linejoin="bevel" transform="matrix(0.6,0,0,0.6,528.9,545.6)"
font-family="MS Shell Dlg 2" font-size="10" font-weight="400" font-style="normal" 
>
</g>

<g fill="none" stroke="#000000" stroke-opacity="1" stroke-width="1" stroke-linecap="square" stroke-linejoin="bevel" transform="matrix(0.6,0,0,0.6,0,0)"
font-family="MS Shell Dlg 2" font-size="10" font-weight="400" font-style="normal" 
>
</g>

<g fill="none" stroke="#000000" stroke-opacity="1" stroke-width="1" stroke-linecap="square" stroke-linejoin="bevel" transform="matrix(0.6,0,0,0.6,691.1,545.6)"
font-family="MS Shell Dlg 2" font-size="10" font-weight="400" font-style="normal" 
>
</g>

<g fill="none" stroke="#000000" stroke-opacity="1" stroke-width="1" stroke-linecap="square" stroke-linejoin="bevel" transform="matrix(0.6,0,0,0.6,691.1,545.6)"
font-family="MS Shell Dlg 2" font-size="17" font-weight="400" font-style="normal" 
>
</g>

<g fill="none" stroke="#000000" stroke-opacity="1" stroke-width="1" stroke-linecap="square" stroke-linejoin="bevel" transform="matrix(0.6,0,0,0.6,691.1,545.6)"
font-family="MS Shell Dlg 2" font-size="17" font-weight="400" font-style="normal" 
>
<text fill="#000000" fill-opacity="1" stroke="none" xml:space="preserve" x="0" y="13" font-family="MS Shell Dlg 2" font-size="17" font-weight="400" font-style="normal" 
 >800</text>
</g>

<g fill="none" stroke="#000000" stroke-opacity="1" stroke-width="1" stroke-linecap="square" stroke-linejoin="bevel" transform="matrix(0.6,0,0,0.6,691.1,545.6)"
font-family="MS Shell Dlg 2" font-size="10" font-weight="400" font-style="normal" 
>
</g>

<g fill="none" stroke="#000000" stroke-opacity="1" stroke-width="1" stroke-linecap="square" stroke-linejoin="bevel" transform="matrix(0.6,0,0,0.6,691.1,545.6)"
font-family="MS Shell Dlg 2" font-size="10" font-weight="400" font-style="normal" 
>
</g>

<g fill="none" stroke="#000000" stroke-opacity="1" stroke-width="1" stroke-linecap="square" stroke-linejoin="bevel" transform="matrix(0.6,0,0,0.6,0,0)"
font-family="MS Shell Dlg 2" font-size="10" font-weight="400" font-style="normal" 
>
</g>

<g fill="none" stroke="#000000" stroke-opacity="1" stroke-width="1" stroke-linecap="square" stroke-linejoin="bevel" transform="matrix(0.6,0,0,0.6,849.1,545.6)"
font-family="MS Shell Dlg 2" font-size="10" font-weight="400" font-style="normal" 
>
</g>

<g fill="none" stroke="#000000" stroke-opacity="1" stroke-width="1" stroke-linecap="square" stroke-linejoin="bevel" transform="matrix(0.6,0,0,0.6,849.1,545.6)"
font-family="MS Shell Dlg 2" font-size="17" font-weight="400" font-style="normal" 
>
</g>

<g fill="none" stroke="#000000" stroke-opacity="1" stroke-width="1" stroke-linecap="square" stroke-linejoin="bevel" transform="matrix(0.6,0,0,0.6,849.1,545.6)"
font-family="MS Shell Dlg 2" font-size="17" font-weight="400" font-style="normal" 
>
<text fill="#000000" fill-opacity="1" stroke="none" xml:space="preserve" x="0" y="13" font-family="MS Shell Dlg 2" font-size="17" font-weight="400" font-style="normal" 
 >1.000</text>
</g>

<g fill="none" stroke="#000000" stroke-opacity="1" stroke-width="1" stroke-linecap="square" stroke-linejoin="bevel" transform="matrix(0.6,0,0,0.6,849.1,545.6)"
font-family="MS Shell Dlg 2" font-size="10" font-weight="400" font-style="normal" 
>
</g>

<g fill="none" stroke="#000000" stroke-opacity="1" stroke-width="1" stroke-linecap="square" stroke-linejoin="bevel" transform="matrix(0.6,0,0,0.6,849.1,545.6)"
font-family="MS Shell Dlg 2" font-size="10" font-weight="400" font-style="normal" 
>
</g>

<g fill="none" stroke="#000000" stroke-opacity="1" stroke-width="1" stroke-linecap="square" stroke-linejoin="bevel" transform="matrix(0.6,0,0,0.6,0,0)"
font-family="MS Shell Dlg 2" font-size="10" font-weight="400" font-style="normal" 
>
</g>

<g fill="none" stroke="#000000" stroke-opacity="1" stroke-width="1" stroke-linecap="square" stroke-linejoin="bevel" transform="matrix(0.6,0,0,0.6,0,0)"
font-family="MS Shell Dlg 2" font-size="10" font-weight="400" font-style="normal" 
>
</g>

<g fill="none" stroke="#000000" stroke-opacity="1" stroke-width="1" stroke-linecap="butt" stroke-linejoin="bevel" transform="matrix(0.6,0,0,0.6,0,0)"
font-family="MS Shell Dlg 2" font-size="10" font-weight="400" font-style="normal" 
>
<polyline fill="none" vector-effect="non-scaling-stroke" points="151.583,896.333 151.583,900.333 " />
<polyline fill="none" vector-effect="non-scaling-stroke" points="286.75,896.333 286.75,900.333 " />
<polyline fill="none" vector-effect="non-scaling-stroke" points="421.917,896.333 421.917,900.333 " />
<polyline fill="none" vector-effect="non-scaling-stroke" points="557.083,896.333 557.083,900.333 " />
<polyline fill="none" vector-effect="non-scaling-stroke" points="692.25,896.333 692.25,900.333 " />
<polyline fill="none" vector-effect="non-scaling-stroke" points="827.417,896.333 827.417,900.333 " />
<polyline fill="none" vector-effect="non-scaling-stroke" points="962.583,896.333 962.583,900.333 " />
<polyline fill="none" vector-effect="non-scaling-stroke" points="1097.75,896.333 1097.75,900.333 " />
<polyline fill="none" vector-effect="non-scaling-stroke" points="1232.92,896.333 1232.92,900.333 " />
<polyline fill="none" vector-effect="non-scaling-stroke" points="1368.08,896.333 1368.08,900.333 " />
<polyline fill="none" vector-effect="non-scaling-stroke" points="219.167,896.333 219.167,902.333 " />
<polyline fill="none" vector-effect="non-scaling-stroke" points="489.5,896.333 489.5,902.333 " />
<polyline fill="none" vector-effect="non-scaling-stroke" points="759.833,896.333 759.833,902.333 " />
<polyline fill="none" vector-effect="non-scaling-stroke" points="1030.17,896.333 1030.17,902.333 " />
<polyline fill="none" vector-effect="non-scaling-stroke" points="1300.5,896.333 1300.5,902.333 " />
<polyline fill="none" vector-effect="non-scaling-stroke" points="84,896.333 84,904.333 " />
<polyline fill="none" vector-effect="non-scaling-stroke" points="354.333,896.333 354.333,904.333 " />
<polyline fill="none" vector-effect="non-scaling-stroke" points="624.667,896.333 624.667,904.333 " />
<polyline fill="none" vector-effect="non-scaling-stroke" points="895,896.333 895,904.333 " />
<polyline fill="none" vector-effect="non-scaling-stroke" points="1165.33,896.333 1165.33,904.333 " />
<polyline fill="none" vector-effect="non-scaling-stroke" points="1435.67,896.333 1435.67,904.333 " />
</g>

<g fill="none" stroke="#000000" stroke-opacity="1" stroke-width="1" stroke-linecap="square" stroke-linejoin="bevel" transform="matrix(0.6,0,0,0.6,0,0)"
font-family="MS Shell Dlg 2" font-size="10" font-weight="400" font-style="normal" 
>
</g>

<g fill="none" stroke="#000000" stroke-opacity="1" stroke-width="1" stroke-linecap="butt" stroke-linejoin="bevel" transform="matrix(0.6,0,0,0.6,0,0)"
font-family="MS Shell Dlg 2" font-size="10" font-weight="400" font-style="normal" 
>
<polyline fill="none" vector-effect="non-scaling-stroke" points="84,896.333 1435.67,896.333 " />
</g>

<g fill="none" stroke="#000000" stroke-opacity="1" stroke-width="1" stroke-linecap="square" stroke-linejoin="bevel" transform="matrix(0.6,0,0,0.6,0,0)"
font-family="MS Shell Dlg 2" font-size="10" font-weight="400" font-style="normal" 
>
</g>

<g fill="none" stroke="#000000" stroke-opacity="1" stroke-width="1" stroke-linecap="square" stroke-linejoin="bevel" transform="matrix(0.6,0,0,0.6,0,0)"
font-family="MS Shell Dlg 2" font-size="10" font-weight="400" font-style="normal" 
>
</g>

<g fill="none" stroke="#000000" stroke-opacity="1" stroke-width="1" stroke-linecap="square" stroke-linejoin="bevel" transform="matrix(0.6,0,0,0.6,0,0)"
font-family="MS Shell Dlg 2" font-size="7.8" font-weight="400" font-style="normal" 
>
</g>

<g fill="none" stroke="#000000" stroke-opacity="1" stroke-width="1" stroke-linecap="square" stroke-linejoin="bevel" transform="matrix(1,0,0,1,0,0)"
font-family="MS Shell Dlg 2" font-size="7.8" font-weight="400" font-style="normal" 
>
</g>
</g>
</svg>
